<svg width="326" height="314" viewBox="0 0 326 314" fill="none" xmlns="http://www.w3.org/2000/svg">
<path d="M298.211 177.831C294.647 182.541 290.708 187.313 286.394 192.148C282.695 196.29 279.151 200.44 275.761 204.597C231.729 258.353 210.395 310.741 143.03 313.268C96.744 315.01 63.7877 287.631 39.5854 246.951C29.5809 230.151 21.0741 211.064 13.743 190.877C12.5598 187.632 11.4116 184.358 10.2984 181.053C8.80069 176.652 7.35793 172.203 5.97009 167.707C-1.96009 142.183 0.0542846 118.841 8.7333 98.3926C10.3093 94.6823 12.097 91.0652 14.0875 87.5591C36.912 47.283 85.9758 20.061 131.655 12.2555C154.77 8.2704 178.322 7.46541 201.656 9.86304C202.996 10.0051 204.322 10.1621 205.647 10.3266C206.973 10.4911 208.485 10.6855 209.893 10.8873C211.526 11.1166 213.148 11.3658 214.761 11.635C217.232 12.0287 219.681 12.4748 222.107 12.9733C224.54 13.4443 226.952 13.9676 229.325 14.5284C231.782 15.1016 234.205 15.7172 236.597 16.3751C237.92 16.734 239.233 17.1078 240.536 17.4966C314.947 39.485 357.159 99.9327 298.211 177.831Z" fill="url(#paint0_linear_781_1435)"/>
<g opacity="0.19">
<path opacity="0.19" d="M247.934 77.2939H183.534V159.379H247.934V77.2939Z" fill="#7F98EF"/>
<path opacity="0.19" d="M242.43 84.2993H189.023V152.381H242.43V84.2993Z" fill="white"/>
<path opacity="0.19" d="M219.449 82.9014H212.29V152.381H219.449V82.9014Z" fill="#7F98EF"/>
<path opacity="0.19" d="M246.804 121.218V114.071H184.793V121.218H246.804Z" fill="#7F98EF"/>
</g>
<g opacity="0.19">
<path opacity="0.19" d="M73.1331 89.3985V152.201H8.73315V98.3704C10.3092 94.6601 12.0968 91.043 14.0873 87.5369L14.2296 87.4471C16.9202 85.7876 19.7983 84.4525 22.8038 83.4697C27.5567 81.7775 32.5021 80.6825 37.5259 80.2099C39.9107 80.0275 42.3074 80.0675 44.6848 80.3295C51.7763 81.0772 58.4035 83.8061 67.6666 87.3425C69.3739 88.0004 71.1936 88.6883 73.1331 89.3985Z" fill="#7F98EF"/>
<path opacity="0.19" d="M67.6368 87.3425V145.203H14.2297V87.4771C16.9189 85.8072 19.7971 84.462 22.8039 83.4697C27.5569 81.7775 32.5022 80.6825 37.526 80.2099C39.9109 80.0275 42.3075 80.0675 44.6849 80.3295C51.7464 81.1071 58.3736 83.8061 67.6368 87.3425Z" fill="white"/>
<path opacity="0.19" d="M44.655 80.3295V145.203H37.4961V80.2099C39.8809 80.0275 42.2776 80.0675 44.655 80.3295Z" fill="#7F98EF"/>
<path opacity="0.19" d="M72.01 114.041V106.893H9.99889V114.041H72.01Z" fill="#7F98EF"/>
</g>
<path style="mix-blend-mode:multiply" d="M298.211 177.831C294.646 182.541 290.707 187.314 286.394 192.149C282.695 196.291 279.15 200.44 275.761 204.597H148.458L151.312 193.023L152.24 189.24L154.816 178.691L155.939 174.123L157.1 169.413L178.18 83.8139H183.527L212.289 83.7092H219.448L247.904 83.6046L267.726 83.5298L267.838 83.8662L298.211 177.831Z" fill="url(#paint1_linear_781_1435)"/>
<path d="M280.695 46.3563V77.182C280.694 78.7804 280.113 80.3242 279.06 81.5282C278.007 82.7321 276.553 83.5147 274.967 83.7315C274.674 83.7668 274.379 83.7868 274.083 83.7913H173.432C173.144 83.788 172.857 83.7705 172.571 83.739C170.986 83.5206 169.534 82.7372 168.483 81.5334C167.431 80.3297 166.851 78.7868 166.85 77.1895V46.3563C166.849 45.4887 167.019 44.6295 167.351 43.8276C167.683 43.0258 168.17 42.2972 168.784 41.6833C169.398 41.0695 170.127 40.5826 170.93 40.2503C171.733 39.9181 172.593 39.7471 173.462 39.7471H274.083C274.966 39.7464 275.84 39.9244 276.652 40.2704C277.85 40.7759 278.873 41.6227 279.592 42.7051C280.311 43.7875 280.695 45.0574 280.695 46.3563Z" fill="#F2F4FF"/>
<path d="M274.967 83.739C274.674 83.7743 274.379 83.7943 274.084 83.7988H173.432C173.145 83.793 172.857 83.7731 172.571 83.739L172.684 83.2605C173.114 81.3595 174.181 79.6621 175.709 78.4493C177.237 77.2365 179.134 76.5811 181.086 76.5915H266.46C268.412 76.58 270.308 77.2353 271.835 78.4484C273.362 79.6615 274.428 81.3595 274.855 83.2605L274.967 83.739Z" fill="#E6E7E8"/>
<path d="M267.92 83.8064H178.157C178.742 81.9597 181.018 80.584 183.736 80.584H262.364C265.06 80.584 267.336 81.9597 267.92 83.8064Z" fill="#DADADA"/>
<g opacity="0.58">
<path opacity="0.58" d="M229.985 48.5767H217.599C216.59 48.5767 215.772 49.3934 215.772 50.4009V50.7523C215.772 51.7598 216.59 52.5766 217.599 52.5766H229.985C230.994 52.5766 231.812 51.7598 231.812 50.7523V50.4009C231.812 49.3934 230.994 48.5767 229.985 48.5767Z" fill="#97B2E8"/>
</g>
<path d="M144.063 207.012H30.7041V174.063C30.7031 167.665 31.9643 161.331 34.4156 155.42C36.8669 149.51 40.4604 144.139 44.9907 139.615C49.5211 135.091 54.8996 131.503 60.8192 129.054C66.7388 126.606 73.0834 125.346 79.4908 125.346H95.2763C101.684 125.344 108.03 126.603 113.95 129.05C119.871 131.498 125.25 135.086 129.781 139.611C134.311 144.135 137.905 149.506 140.355 155.418C142.806 161.329 144.066 167.665 144.063 174.063V207.012Z" fill="#CAD5FF"/>
<path opacity="0.09" d="M157.13 180.575V246.959H120.639V180.575C120.639 175.746 122.56 171.114 125.98 167.699C129.399 164.284 134.037 162.364 138.874 162.362C141.27 162.36 143.644 162.83 145.859 163.744C148.074 164.658 150.087 166 151.782 167.691C153.478 169.382 154.823 171.391 155.74 173.601C156.658 175.812 157.13 178.182 157.13 180.575Z" fill="black"/>
<path opacity="0.09" d="M50.234 180.575V246.959H39.5855C29.5811 230.159 21.0743 211.071 13.7432 190.885V180.575C13.7443 176.038 15.4416 171.666 18.5028 168.313C21.5639 164.961 25.7683 162.871 30.2924 162.452C30.8646 162.391 31.4395 162.361 32.0148 162.362H32.1496C36.9642 162.397 41.5694 164.332 44.9613 167.744C48.3532 171.155 50.2566 175.768 50.2564 180.575H50.234Z" fill="black"/>
<path d="M125.043 222.287H46.7817V246.959H125.043V222.287Z" fill="#486ED8"/>
<path opacity="0.3" d="M125.043 222.287H46.7817V228.313H125.043V222.287Z" fill="black"/>
<path d="M160.493 180.072V246.456H124.01V180.072C124.009 177.68 124.48 175.311 125.396 173.101C126.312 170.891 127.656 168.883 129.35 167.192C131.044 165.5 133.056 164.159 135.269 163.244C137.483 162.329 139.855 161.858 142.251 161.859C144.647 161.859 147.019 162.33 149.232 163.246C151.445 164.161 153.456 165.503 155.15 167.194C156.844 168.885 158.188 170.893 159.104 173.102C160.021 175.312 160.493 177.68 160.493 180.072Z" fill="#7F98EF"/>
<path d="M46.7668 180.575V246.959H39.5704C29.566 230.159 21.0592 211.072 13.7281 190.885C12.5449 187.64 11.3967 184.365 10.2834 181.061V180.59C10.2825 178.198 10.7536 175.829 11.67 173.619C12.5864 171.409 13.93 169.401 15.6241 167.709C17.3182 166.018 19.3295 164.676 21.5432 163.761C23.7568 162.846 26.1293 162.376 28.5251 162.377C29.1029 162.377 29.6803 162.407 30.2549 162.467C30.8508 162.515 31.4433 162.597 32.0297 162.713C36.178 163.526 39.9152 165.751 42.603 169.008C45.2908 172.266 46.7625 176.354 46.7668 180.575Z" fill="#7F98EF"/>
<path d="M125.043 206.421H46.7817V222.87H125.043V206.421Z" fill="#7F98EF"/>
<path d="M142.109 194.085C149.259 194.085 155.056 188.297 155.056 181.158C155.056 174.019 149.259 168.231 142.109 168.231C134.958 168.231 129.161 174.019 129.161 181.158C129.161 188.297 134.958 194.085 142.109 194.085Z" fill="#A7C0F9"/>
<path d="M142.109 185.674C144.607 185.674 146.632 183.652 146.632 181.158C146.632 178.664 144.607 176.642 142.109 176.642C139.611 176.642 137.586 178.664 137.586 181.158C137.586 183.652 139.611 185.674 142.109 185.674Z" fill="#C2D6FF"/>
<path d="M27.9559 194.085C35.1066 194.085 40.9033 188.297 40.9033 181.158C40.9033 174.019 35.1066 168.231 27.9559 168.231C20.8053 168.231 15.0085 174.019 15.0085 181.158C15.0085 188.297 20.8053 194.085 27.9559 194.085Z" fill="#A7C0F9"/>
<path d="M27.9559 186.219C30.7557 186.219 33.0255 183.953 33.0255 181.158C33.0255 178.362 30.7557 176.096 27.9559 176.096C25.156 176.096 22.8862 178.362 22.8862 181.158C22.8862 183.953 25.156 186.219 27.9559 186.219Z" fill="#C2D6FF"/>
<path opacity="0.4" d="M72.9011 159.424C74.3031 159.424 75.4397 158.289 75.4397 156.889C75.4397 155.489 74.3031 154.354 72.9011 154.354C71.4991 154.354 70.3625 155.489 70.3625 156.889C70.3625 158.289 71.4991 159.424 72.9011 159.424Z" fill="white"/>
<path opacity="0.29" d="M97.0434 159.424C98.4454 159.424 99.582 158.289 99.582 156.889C99.582 155.489 98.4454 154.354 97.0434 154.354C95.6414 154.354 94.5049 155.489 94.5049 156.889C94.5049 158.289 95.6414 159.424 97.0434 159.424Z" fill="white"/>
<path opacity="0.24" d="M73.2607 179.176C74.6627 179.176 75.7993 178.042 75.7993 176.642C75.7993 175.242 74.6627 174.107 73.2607 174.107C71.8587 174.107 70.7222 175.242 70.7222 176.642C70.7222 178.042 71.8587 179.176 73.2607 179.176Z" fill="white"/>
<path opacity="0.19" d="M97.4106 179.176C98.8126 179.176 99.9492 178.042 99.9492 176.642C99.9492 175.242 98.8126 174.107 97.4106 174.107C96.0086 174.107 94.8721 175.242 94.8721 176.642C94.8721 178.042 96.0086 179.176 97.4106 179.176Z" fill="white"/>
<path d="M153.783 230.885L143.966 233.599L126.211 154.826V131.469H147.238L148.421 149.413L153.783 230.885Z" fill="#FFC82E"/>
<path d="M146.302 131.469C143.533 138.76 139.587 145.549 134.62 151.566L112.192 233.599L101.432 230.339L113.585 131.469H146.302Z" fill="#FFC82E"/>
<path d="M126.675 75.0137L113.121 79.2529V127.776C113.121 127.776 111.721 130.572 112.192 132.904C112.664 135.237 123.425 134.303 132.284 134.303C141.142 134.303 148.174 135.237 148.174 130.564C148.174 125.891 146.766 98.8414 146.766 92.7779V79.679L135.534 75.0137H126.675Z" fill="#5158A6"/>
<path opacity="0.21" d="M113.128 108.508L117.891 99.7456L113.218 117.375L113.128 108.508Z" fill="#0A0B0F"/>
<path d="M160.949 122.691C158.659 126.587 156.086 130.31 153.251 133.831C151.896 135.528 151.005 136.605 151.005 136.605L146.332 131.94L147.717 128.583L152.877 116.082L146.332 106.28C146.332 106.28 145.86 84.3514 146.796 79.686C150.54 80.8 158.029 98.1007 161.698 108.209C162.442 110.169 163.084 112.165 163.623 114.19C164.057 116.224 162.836 119.379 160.949 122.691Z" fill="#5158A6"/>
<path d="M119.666 96.4488L110.785 112.778H129.947V119.776C129.947 119.776 128.502 120.314 126.203 121.054C121.71 122.505 113.997 124.755 107.482 125.376C106.315 125.492 105.138 125.492 103.97 125.376C96.5868 124.628 93.2395 119.118 94.8719 114.647C94.8719 114.557 94.9318 114.467 94.9693 114.37C97.1035 108.591 108.036 81.0173 113.091 79.1855L119.666 96.4488Z" fill="#5158A6"/>
<path d="M138.829 99.7456L146.938 100.321L141.15 119.895L132.748 119.805L138.829 99.7456Z" fill="#F87A1E"/>
<path d="M129.948 113.712C129.948 113.712 134.343 110.116 135.444 110.116C136.545 110.116 134.695 113.047 134.695 113.047C134.695 113.047 136.897 114.504 140.933 113.794C142.034 113.428 142.431 115.252 140.566 116.351C141.315 117.45 140.566 118.549 139.068 118.916C139.817 120.411 138.701 121.114 136.867 121.114C135.032 121.114 131.003 120.366 129.903 118.916L129.948 113.712Z" fill="#F4D0B5"/>
<path d="M150.548 136.172L148.174 139.401C148.16 140.023 148.097 140.643 147.987 141.256C147.73 142.717 147.4 144.164 146.998 145.592C144.662 142.975 143.696 139.013 143.299 135.2C143.561 133.787 145.74 133.704 145.74 133.704L146.766 132.426L147.35 133.009L150.548 136.172Z" fill="#F4D0B5"/>
<path d="M104.711 122.138C104.713 123.266 104.471 124.38 104 125.405C96.6165 124.658 93.2693 119.148 94.9017 114.677C94.9017 114.587 94.9616 114.497 94.9991 114.4C95.5792 114.271 96.1719 114.205 96.7663 114.206C98.8735 114.206 100.894 115.041 102.384 116.529C103.874 118.017 104.711 120.034 104.711 122.138Z" fill="#3152A2"/>
<path d="M160.949 122.692C159.578 121.996 158.439 120.919 157.669 119.59C156.899 118.261 156.531 116.737 156.61 115.204C156.689 113.671 157.212 112.193 158.115 110.951C159.018 109.708 160.263 108.753 161.698 108.202C162.442 110.162 163.084 112.158 163.623 114.183C164.057 116.224 162.836 119.38 160.949 122.692Z" fill="#3152A2"/>
<path d="M136.754 77.0097L135.818 68.4565L128.33 68.6883L127.873 77.0097C127.873 77.0097 128.338 81.2863 132.546 81.2863C136.754 81.2863 136.754 77.0097 136.754 77.0097Z" fill="#F4D0B5"/>
<path opacity="0.22" d="M136.41 73.9747C135.489 74.2887 132.583 74.9168 129.393 71.9037C125.507 68.2477 135.788 70.5804 135.788 70.5804L136.2 72.0757L136.41 73.9747Z" fill="#14110E"/>
<path d="M138.012 79.365C138.057 80.0384 137.935 80.7124 137.656 81.3272C137.377 81.942 136.951 82.4786 136.414 82.8892C135.878 83.2997 135.248 83.5716 134.581 83.6807C133.914 83.7898 133.23 83.7327 132.591 83.5145C130.224 82.6397 127.678 80.1351 125.342 75.3651L126.473 75.0137H127.821C128.854 77.3538 130.816 80.6136 133.482 80.6136C136.612 80.6136 136.709 77.0996 136.253 75.2529L137.81 76.0454C137.878 77.0099 137.952 78.2435 138.012 79.365Z" fill="#3152A2"/>
<path d="M102.375 231.699L101.087 239.31L108.875 241.778L111.047 234.211L102.375 231.699Z" fill="#F4D0B5"/>
<path opacity="0.3" d="M101.679 236.207L110.702 235.191L102.008 233.052L101.679 236.207Z" fill="black"/>
<path d="M101.11 238.196L88.3721 245.875L109.01 246.974L109.849 239.542L101.11 238.196Z" fill="#FBC34A"/>
<path d="M115.929 231.497L99.8068 226.876L99.5747 233.127L113.593 235.848L115.929 231.497Z" fill="#FFCD69"/>
<path d="M153.708 231.235L154.442 238.914L146.489 240.813L144.872 233.112L153.708 231.235Z" fill="#F4D0B5"/>
<path opacity="0.3" d="M154.075 235.781L145.149 234.114L153.977 232.604L154.075 235.781Z" fill="black"/>
<path d="M154.494 237.808L166.648 246.383L145.98 245.987L145.688 238.518L154.494 237.808Z" fill="#FBC34A"/>
<path d="M140.199 230.047L156.613 226.608L156.396 232.858L142.213 234.555L140.199 230.047Z" fill="#FFCD69"/>
<path opacity="0.21" d="M131.962 180.358C131.58 179.289 136.253 146.631 136.253 146.631L129.603 169.906L131.962 180.358Z" fill="#0A0B0F"/>
<path d="M141.562 63.0358L139.66 49.9145L143.097 49.4136C143.516 51.6565 144.407 60.8302 141.562 63.0358Z" fill="#0C2068"/>
<path d="M124.773 66.3781C124.773 66.3781 127.806 74.4528 135.886 72.4341C143.966 70.4155 142.962 52.2475 140.94 48.2176C138.918 44.1878 123.762 52.2549 123.762 59.3128C123.762 66.3706 124.773 66.3781 124.773 66.3781Z" fill="#F4D0B5"/>
<path d="M125.784 54.2739C125.784 54.2739 151.14 60.913 144.887 40.2554C144.887 40.2554 139.113 45.0628 126.608 46.0198C124.159 46.2067 119.389 49.3842 121.314 58.0271C123.56 68.0755 124.773 66.3784 124.773 66.3784L125.784 54.2739Z" fill="#32333D"/>
<path d="M125.103 63.7689C126.778 63.7689 128.135 62.4132 128.135 60.7409C128.135 59.0686 126.778 57.7129 125.103 57.7129C123.428 57.7129 122.07 59.0686 122.07 60.7409C122.07 62.4132 123.428 63.7689 125.103 63.7689Z" fill="#F4D0B5"/>
<g opacity="0.24">
<path opacity="0.24" d="M147.291 84.6809C145.578 84.2796 143.792 84.3085 142.093 84.7652C140.394 85.2219 138.835 86.092 137.556 87.2977L138.245 88.3967C139.37 87.271 140.764 86.4496 142.295 86.0099C143.826 85.5702 145.444 85.5266 146.997 85.8833C148.549 86.24 149.985 86.9852 151.17 88.0488C152.354 89.1124 153.249 90.4594 153.768 91.963L154.869 91.2752C154.247 89.638 153.23 88.1794 151.908 87.029C150.586 85.8786 149 85.072 147.291 84.6809Z" fill="#FFC82E"/>
</g>
<g opacity="0.38">
<path opacity="0.38" d="M146.729 87.1328C145.34 86.8137 143.891 86.8625 142.526 87.2742C141.162 87.686 139.928 88.4465 138.948 89.4804L139.652 90.5944C140.47 89.6282 141.538 88.9055 142.74 88.5057C143.942 88.1058 145.231 88.0442 146.466 88.3277C147.701 88.6112 148.833 89.2287 149.74 90.1126C150.646 90.9965 151.291 92.1126 151.604 93.3383L152.72 92.643C152.29 91.282 151.511 90.057 150.46 89.0902C149.409 88.1234 148.123 87.4485 146.729 87.1328Z" fill="#FFC82E"/>
</g>
<g opacity="0.68">
<path opacity="0.68" d="M146.16 89.5777C145.088 89.3341 143.969 89.4058 142.938 89.7839C141.907 90.1621 141.007 90.8306 140.349 91.7085L141.097 92.8823C141.568 92.068 142.289 91.4261 143.152 91.0513C144.016 90.6764 144.977 90.5885 145.895 90.8003C146.812 91.0122 147.638 91.5127 148.249 92.2281C148.86 92.9434 149.225 93.8359 149.29 94.7739L150.465 94.0262C150.256 92.9483 149.737 91.9543 148.973 91.1646C148.209 90.375 147.231 89.8238 146.16 89.5777Z" fill="#FFC82E"/>
</g>
<path d="M144.887 97.5999C146.276 97.5999 147.403 96.4752 147.403 95.0878C147.403 93.7004 146.276 92.5757 144.887 92.5757C143.497 92.5757 142.371 93.7004 142.371 95.0878C142.371 96.4752 143.497 97.5999 144.887 97.5999Z" fill="#FFC82E"/>
<path d="M243.771 200.857H226.061C224.563 197.014 227.184 192.94 224.841 186.57C221.643 177.874 218.64 180.073 220.303 172.753C221.326 168.547 221.21 164.144 219.966 159.998C220.108 160.058 229.199 164.334 231.056 172.349C232.022 176.469 232.898 178.443 234.051 179.983C235.204 181.523 236.477 182.547 238.357 184.753C242.191 189.239 238.559 195.639 241.592 197.941C242.553 198.71 243.305 199.707 243.779 200.842L243.771 200.857Z" fill="#8094DD"/>
<path opacity="0.09" d="M243.599 200.842H232.494C231.595 198.271 229.91 195.317 231.161 191.669C232.883 186.644 234.209 185.575 233.894 179.983C234.987 181.478 236.32 182.547 238.2 184.753C242.034 189.239 238.402 195.639 241.435 197.942C242.388 198.713 243.132 199.71 243.599 200.842Z" fill="black"/>
<path opacity="0.29" d="M234.546 200.858C234.546 200.858 235.691 192.686 232.247 188.604C228.802 184.521 227.08 180.432 227.08 175.325" stroke="white" stroke-width="2" stroke-linecap="round" stroke-linejoin="round"/>
<path d="M248.968 200.469L248.219 200.857H234.141C233.242 198.285 231.558 195.332 232.808 191.684C234.778 185.942 236.23 185.366 235.302 177.314C234.373 169.262 241.195 161.239 241.195 161.239C241.4 165.357 242.723 169.343 245.022 172.768C245.68 173.691 246.214 174.696 246.609 175.759C247.575 178.749 245.471 179.923 245.441 187.145C245.441 193.747 248.893 196.237 248.968 200.17C248.968 200.274 248.968 200.371 248.968 200.469Z" fill="#5F72C4"/>
<path opacity="0.09" d="M248.968 201.178H236.043C236.638 199.682 237.598 198.359 238.836 197.328C242.685 194.278 238.087 185.807 242.932 179.878C244.385 178.113 245.583 176.887 246.609 175.766C247.575 178.868 245.471 180.102 245.441 187.623C245.411 194.487 248.893 197.089 248.968 201.178Z" fill="black"/>
<path opacity="0.29" d="M239.87 200.476C239.87 200.476 236.927 193.186 238.978 188.289C241.03 183.392 241.577 179.041 240.364 174.263" stroke="white" stroke-width="2" stroke-linecap="round" stroke-linejoin="round"/>
<path d="M261.151 234.696C261.151 237.777 259.527 240.573 256.898 242.592C253.899 244.79 250.262 245.948 246.542 245.889H242.049C233.984 245.889 227.446 240.879 227.446 234.674L226.765 207.654C226.765 207.512 226.765 207.37 226.765 207.228H260.41C260.41 207.37 260.41 207.512 260.41 207.654L261.151 234.696Z" fill="#FBC34A"/>
<path d="M261.152 234.696C261.152 237.777 259.527 240.573 256.898 242.592C255.32 243.01 253.694 243.221 252.061 243.22H247.568C239.503 243.22 232.958 238.21 232.958 232.005L232.336 207.228H260.44C260.44 207.37 260.44 207.512 260.44 207.654L261.152 234.696Z" fill="#FFC82E"/>
<path opacity="0.09" d="M256.898 242.592C253.899 244.79 250.262 245.948 246.542 245.889H242.049C233.984 245.889 227.446 240.879 227.446 234.674L226.765 207.654C226.765 207.512 226.765 207.37 226.765 207.228H232.306L232.928 232.005C232.928 238.188 239.473 243.22 247.538 243.22H252.031C253.674 243.224 255.31 243.013 256.898 242.592Z" fill="#FF6029"/>
<path d="M263.278 200.857H223.957V207.25H263.278V200.857Z" fill="#FFCD69"/>
<path d="M261.256 182.704C258.261 190.801 261.601 195.975 259.706 200.857H237.241C237.84 199.395 238.801 198.109 240.034 197.119C243.883 194.188 239.286 186.054 244.138 180.364C248.99 174.674 250.997 174.876 253.394 164.611C255.79 154.346 267.479 148.91 267.479 148.91C267.479 148.91 264.941 155.796 267.052 165.112C269.164 174.428 265.315 171.669 261.256 182.704Z" fill="#3C4CAC"/>
<path opacity="0.29" d="M248.968 200.858C248.968 200.858 247.515 190.48 251.889 185.291C256.262 180.103 258.448 174.914 258.448 168.424" stroke="white" stroke-width="2" stroke-linecap="round" stroke-linejoin="round"/>
<path opacity="0.27" d="M263.278 200.857V200.895L224.496 207.25H223.957V200.857H263.278Z" fill="#FAFBFF"/>
<g opacity="0.24">
<path opacity="0.24" d="M223.073 0.00154549C218.553 -0.0463665 214.091 1.0204 210.084 3.10717C206.076 5.19395 202.646 8.23622 200.099 11.964L202.442 14.3565C204.657 10.9195 207.708 8.09925 211.31 6.15923C214.913 4.21921 218.949 3.2228 223.042 3.26313C227.135 3.30345 231.151 4.37919 234.715 6.38981C238.278 8.40044 241.273 11.2803 243.419 14.7602L245.808 12.42C243.335 8.6411 239.966 5.53027 236 3.36384C232.034 1.19741 227.594 0.0424519 223.073 0.00154549Z" fill="#FFC82E"/>
</g>
<g opacity="0.38">
<path opacity="0.38" d="M223.013 6.47588C219.346 6.44432 215.734 7.36925 212.534 9.15917C209.335 10.9491 206.659 13.542 204.771 16.6813L207.145 19.1037C208.673 16.2404 210.958 13.8505 213.753 12.1946C216.547 10.5387 219.743 9.68011 222.992 9.7125C226.242 9.74489 229.42 10.667 232.18 12.3783C234.941 14.0896 237.178 16.5245 238.649 19.4177L241.075 17.0477C239.248 13.8664 236.621 11.2171 233.453 9.36267C230.284 7.50823 226.685 6.51306 223.013 6.47588Z" fill="#FFC82E"/>
</g>
<g opacity="0.68">
<path opacity="0.68" d="M222.946 12.9508C220.114 12.925 217.337 13.7211 214.951 15.2422C212.564 16.7633 210.672 18.944 209.504 21.5189L212.005 24.0684C212.741 21.7636 214.197 19.755 216.161 18.3375C218.124 16.92 220.491 16.1682 222.913 16.1924C225.336 16.2167 227.687 17.0157 229.622 18.4723C231.556 19.9288 232.972 21.9662 233.661 24.2852L236.215 21.7881C235.098 19.1901 233.25 16.9719 230.894 15.4031C228.538 13.8343 225.777 12.9823 222.946 12.9508Z" fill="#FFC82E"/>
</g>
<path d="M222.803 33.9899C226.385 33.9899 229.288 31.0911 229.288 27.5152C229.288 23.9393 226.385 21.0405 222.803 21.0405C219.222 21.0405 216.318 23.9393 216.318 27.5152C216.318 31.0911 219.222 33.9899 222.803 33.9899Z" fill="#FFC82E"/>
<defs>
<linearGradient id="paint0_linear_781_1435" x1="114.298" y1="-41.4339" x2="152.496" y2="328.249" gradientUnits="userSpaceOnUse">
<stop stop-color="#1A4EA2"/>
<stop offset="0.971249" stop-color="#58C9D1"/>
</linearGradient>
<linearGradient id="paint1_linear_781_1435" x1="223.185" y1="193.696" x2="235.591" y2="-30.2427" gradientUnits="userSpaceOnUse">
<stop stop-color="white"/>
<stop offset="1" stop-color="#CAD5FF"/>
</linearGradient>
</defs>
</svg>
