<svg width="62" height="81" viewBox="0 0 62 81" fill="none" xmlns="http://www.w3.org/2000/svg">
<path d="M0.719482 31.9445C0.887099 12.4835 17.3285 -1.56781 35.7913 1.00528C49.1481 2.86735 59.9706 13.7464 61.7118 26.9972C62.8051 35.3057 60.7811 42.8187 55.7426 49.4515C48.1349 59.4679 40.3795 69.3725 32.6817 79.3218C31.681 80.6245 31.078 80.622 30.0573 79.3093C22.3645 69.4122 14.6441 59.5326 6.99634 49.5957C2.78341 44.1214 0.75951 37.8639 0.719482 31.9445ZM31.3282 77.1166C31.5784 76.8432 31.7135 76.7338 31.8136 76.6045C39.2562 66.9784 46.7889 57.4219 54.104 47.7038C58.8948 41.3345 60.7336 34.0527 59.1625 26.2017C56.881 14.8154 50.0287 7.18815 38.7884 4.12033C27.7457 1.1072 17.9965 4.08056 10.2911 12.5084C0.922125 22.756 0.659439 37.5904 9.33296 48.8051C14.67 55.7015 20.017 62.5888 25.3741 69.4669C27.3304 71.9804 29.2893 74.4963 31.3282 77.1166Z" fill="white"/>
<path d="M31.2882 9.8833C42.3584 10.0151 51.4347 18.2539 52.573 29.3369C53.6387 39.7411 46.2011 49.6854 35.7138 51.8632C31.5331 52.7232 27.1888 52.3136 23.2454 50.6876C19.3021 49.0617 15.9421 46.2947 13.602 42.7462C11.262 39.1976 10.0502 35.0317 10.124 30.7897C10.1979 26.5477 11.5541 22.4259 14.0162 18.96C14.2339 18.6567 14.414 18.2141 14.7117 18.1048C15.1871 17.9133 15.9251 17.707 16.2128 17.9332C16.5005 18.1595 16.558 18.9277 16.523 19.4249C16.5005 19.7431 16.1227 20.034 15.9051 20.3373C13.7397 23.3865 12.538 27.0079 12.4533 30.7391C12.3686 34.4702 13.4049 38.1418 15.4297 41.285C19.5876 47.7165 27.378 51.0876 34.7806 49.6556C42.5085 48.164 48.4576 42.3043 49.9111 34.7615C50.6353 31.0684 50.2272 27.2444 48.7396 23.7844C47.2521 20.3244 44.7537 17.3878 41.5678 15.3548C38.3819 13.3217 34.6553 12.2858 30.8703 12.3812C27.0853 12.4766 23.4163 13.6988 20.3381 15.8897C20.203 15.9866 20.0704 16.0861 19.9379 16.188C19.2674 16.6976 18.5469 16.9338 17.9865 16.1234C17.4862 15.4049 17.8664 14.8107 18.5069 14.3284C20.7517 12.5866 23.3484 11.3468 26.1196 10.6938C27.8158 10.3109 29.562 10.1568 31.2882 9.8833Z" fill="white"/>
</svg>
