<svg width="46" height="45" viewBox="0 0 46 45" fill="none" xmlns="http://www.w3.org/2000/svg">
<g clip-path="url(#clip0_348_1886)">
<path d="M44.8911 33.3872C43.3587 30.8836 41.8216 28.4013 40.5172 26.3043C39.8752 25.268 39.0738 24.6643 38.2006 24.5588C37.382 24.4594 36.5228 24.7972 35.7012 25.5355C33.9828 24.2225 33.0143 24.2149 31.4272 25.4881L29.4558 24.4365V18.6421C29.4558 14.5275 29.4558 10.4139 29.4558 6.30132C29.4558 2.954 27.1595 0.70563 23.7509 0.704102C18.045 0.704102 12.3381 0.704102 6.63006 0.704102C3.19339 0.704102 0.886135 2.96775 0.886135 6.33342C0.886135 17.21 0.886135 28.0865 0.886135 38.963C0.886135 42.3256 3.19339 44.5938 6.62694 44.5954H12.3443C16.059 44.5954 19.9003 44.5954 23.6791 44.6045H23.7056C25.5005 44.6045 26.9455 44.01 28.1233 42.7887C28.185 42.7352 28.257 42.6941 28.335 42.6678C28.413 42.6416 28.4956 42.6308 28.5779 42.6359C28.8278 42.7184 29.0778 42.7979 29.3293 42.8774C30.3259 43.1938 31.36 43.5224 32.2973 43.984C33.9203 44.7864 35.3466 44.7574 36.7853 43.8908C37.9303 43.1999 39.1003 42.5151 40.2329 41.8396C41.2201 41.2572 42.2402 40.6535 43.24 40.0543C45.8237 38.5014 46.4595 35.9458 44.8911 33.3872ZM22.1482 2.89744C21.9134 3.31328 21.6526 3.71451 21.3671 4.09881C21.2843 4.20428 21 4.29904 20.7563 4.30057C17.2212 4.32197 13.4253 4.33572 9.61371 4.30057C9.36221 4.30057 9.00292 4.05602 8.79984 3.82216C8.55995 3.52245 8.35066 3.20044 8.175 2.86076L8.07659 2.68652H22.2919L22.1482 2.89744ZM9.44969 6.2356H20.8907C21.3512 6.24973 21.8068 6.139 22.2071 5.91566C22.6074 5.69232 22.9368 5.36506 23.1589 4.97004C23.2901 4.75452 23.4244 4.53748 23.5588 4.32197C23.84 3.86343 24.1305 3.40489 24.4023 2.92648C24.5351 2.69416 24.6335 2.659 24.9272 2.74001C26.4893 3.17257 27.5 4.43354 27.5063 5.94978C27.5313 11.9811 27.5281 18.1775 27.4953 24.8798C27.4953 25.0326 27.3657 25.2313 27.2142 25.4621L27.1251 25.5997L26.8127 25.0892C26.3597 24.3647 25.9691 23.738 25.5973 23.1022C25.5409 22.9516 25.5344 22.7874 25.5786 22.6329C25.9941 20.8538 25.6505 19.1679 24.6085 17.8947C23.5666 16.6215 21.9967 15.9245 20.158 15.9199H18.5959C15.7685 15.9199 12.8442 15.9092 9.96831 15.9291C8.65012 15.9381 7.38091 16.419 6.40027 17.281C5.41964 18.1429 4.79543 19.3263 4.64549 20.6078C4.49555 21.8892 4.83025 23.1801 5.58641 24.2366C6.34257 25.2931 7.46786 26.0422 8.74986 26.3425C9.21793 26.4485 9.69721 26.4998 10.1776 26.4953L15.2077 26.4801C17.0603 26.474 18.9141 26.4709 20.7688 26.4709C20.9009 26.4742 21.0275 26.5229 21.1266 26.6085C22.7918 29.271 24.4679 31.9886 26.0894 34.6161L26.4518 35.2045L25.8567 35.258C25.2318 35.3151 24.6111 35.3706 23.9946 35.4246C21.7405 35.6233 20.6251 36.7865 20.5892 38.9813C20.5874 39.0076 20.5832 39.0337 20.5767 39.0593H7.70949C7.64856 39.0593 7.58295 39.0593 7.51891 39.0471C7.31007 39.0058 7.09315 39.0332 6.90187 39.125C6.3973 39.4307 6.14111 39.7364 6.13955 40.0146C6.13799 40.2928 6.39574 40.5862 6.90499 40.8996C7.09637 40.991 7.31299 41.0189 7.52203 40.979C7.58608 40.979 7.65012 40.9683 7.71104 40.9683H10.7134C14.0689 40.9683 17.5399 40.9683 20.9547 40.9836C21.2864 40.9907 21.6088 41.0922 21.8826 41.2756C22.6356 41.809 23.4822 41.9038 24.3024 41.9939L24.4898 42.0153C24.8897 42.0612 25.2881 42.1116 25.7286 42.1682L25.8161 42.1789C25.2568 42.5258 24.6033 42.699 23.9415 42.6756H14.033C11.5752 42.6756 9.118 42.6756 6.6613 42.6756C4.20721 42.6756 2.85597 41.3459 2.85441 38.9447C2.85441 28.0651 2.85441 17.1845 2.85441 6.30285C2.85441 4.4687 3.76512 3.19855 5.41785 2.74613C5.49331 2.72291 5.57157 2.70955 5.65061 2.70639C5.78027 2.70639 5.85212 2.77058 5.94116 2.92801C6.22703 3.43393 6.53945 3.93527 6.8425 4.41979C6.9581 4.6032 7.0737 4.78815 7.18774 4.97309C7.40977 5.36661 7.73835 5.69263 8.13739 5.91536C8.53643 6.13808 8.99049 6.24889 9.44969 6.2356ZM20.144 24.5481H14.2079C15.8013 22.3013 15.7903 20.0437 14.1767 17.8229H15.895C17.4009 17.8137 18.9599 17.8045 20.4892 17.8412C20.9916 17.8511 21.4854 17.9708 21.9344 18.1916C22.3833 18.4125 22.7761 18.7288 23.0839 19.1175C23.3614 19.4628 23.5624 19.8609 23.674 20.2864C23.7856 20.712 23.8054 21.1556 23.7322 21.589C21.1859 21.6012 20.4673 22.1912 20.144 24.5481ZM13.4628 21.2252C13.4525 22.1192 13.0829 22.9733 12.4338 23.6026C11.7848 24.2319 10.9086 24.5859 9.99487 24.5878H9.96207C9.05441 24.5758 8.18785 24.2156 7.5489 23.5847C6.90996 22.9538 6.54971 22.1027 6.5457 21.2145C6.54488 20.7699 6.63363 20.3294 6.80687 19.9183C6.98012 19.5073 7.23447 19.1336 7.55537 18.8188C7.87628 18.5039 8.25745 18.2541 8.67711 18.0834C9.09676 17.9128 9.54668 17.8248 10.0011 17.8244C10.4604 17.8236 10.9151 17.9128 11.3385 18.0869C11.7619 18.261 12.1453 18.5163 12.4661 18.8378C12.7861 19.1509 13.0391 19.5233 13.2102 19.9333C13.3814 20.3432 13.4672 20.7824 13.4628 21.2252ZM23.576 39.9687C23.2741 39.906 23.0038 39.7426 22.8115 39.5065C22.6191 39.2703 22.5166 38.9761 22.5215 38.6741C22.5128 38.3728 22.6164 38.0787 22.813 37.8467C23.0096 37.6146 23.2858 37.4605 23.59 37.4131C24.2492 37.3138 24.9319 37.2603 25.5927 37.2083C25.8614 37.1885 26.1316 37.1671 26.4003 37.1426L27.047 37.0906C27.3391 37.0677 27.6297 37.0463 27.9218 37.0173C28.4717 36.9622 28.8309 36.7804 28.9872 36.4731C29.1434 36.1659 29.0778 35.7624 28.7856 35.2855C27.989 33.9904 27.1892 32.6968 26.3862 31.4048L24.5539 28.4457C23.8353 27.2851 23.1177 26.1234 22.4013 24.9608C22.131 24.5206 21.9326 23.9184 22.5465 23.5561C22.6792 23.4716 22.8334 23.425 22.9917 23.4216C23.0727 23.4218 23.1531 23.4358 23.2292 23.4629C23.5126 23.5883 23.7443 23.8038 23.8868 24.0743C25.2521 26.2753 26.6148 28.4767 27.9749 30.6787L29.6932 33.4682L29.7588 33.5767C29.8432 33.7143 29.9322 33.8579 30.0275 33.997C30.3931 34.5274 30.9117 34.6497 31.4163 34.3257C31.8849 34.02 31.9958 33.514 31.6865 33.0066C31.2783 32.3341 30.8659 31.6636 30.4493 30.9951L30.2197 30.6252C30.0322 30.3196 29.8416 30.0139 29.6526 29.7082C29.2949 29.135 28.9247 28.542 28.5701 27.9566C28.2389 27.4078 28.2998 26.9203 28.7357 26.6513C28.8279 26.591 28.9316 26.5497 29.0406 26.5297C29.1496 26.5097 29.2616 26.5116 29.3699 26.5351C29.5142 26.576 29.6488 26.6445 29.766 26.7366C29.8832 26.8287 29.9805 26.9425 30.0525 27.0716C30.7086 28.117 31.3678 29.1839 32.0067 30.2156C32.289 30.6742 32.5722 31.1327 32.8565 31.5912L32.9362 31.7196C33.0159 31.8511 33.1002 31.9886 33.1924 32.1201C33.572 32.6627 34.075 32.7926 34.5717 32.4762C35.0685 32.1598 35.1607 31.6463 34.8232 31.1006C34.5483 30.6497 34.2703 30.2019 33.9906 29.7525C33.6407 29.187 33.2783 28.6031 32.9284 28.0253C32.8071 27.8446 32.7242 27.6419 32.6847 27.4292C32.6439 27.2439 32.678 27.0502 32.78 26.8889C32.8819 26.7276 33.0437 26.6112 33.2314 26.5641C33.672 26.4113 34.0234 26.532 34.2765 26.9248C34.7061 27.5928 35.131 28.2791 35.5418 28.9439L36.1167 29.8717C36.1417 29.9115 36.1636 29.9573 36.187 30.0032C36.2466 30.1756 36.3704 30.3197 36.5338 30.4067L36.5697 30.4204C36.9368 30.5656 37.3945 30.7475 37.696 30.5733C37.9975 30.399 38.1646 29.7311 38.0506 29.401C37.8997 29.0336 37.7063 28.6843 37.4742 28.3601C37.3742 28.2072 37.2711 28.0544 37.1789 27.9015C37.0075 27.6494 36.9452 27.3411 37.0055 27.0441C37.0357 26.9424 37.0867 26.8478 37.1555 26.7661C37.2242 26.6844 37.3093 26.6172 37.4054 26.5687C38.0303 26.2172 38.4599 26.6986 38.6551 27.0166L38.8114 27.2718C40.3079 29.673 41.8559 32.1629 43.3415 34.6161C43.5071 34.9212 43.6335 35.2451 43.718 35.5805C43.7633 35.7257 43.8086 35.877 43.8601 36.0253C43.7289 37.0448 43.3118 37.7555 42.587 38.1957C40.1423 39.6844 37.6991 41.1212 35.4247 42.451C34.8154 42.8071 34.175 42.8193 33.6142 42.4846C30.9679 40.8965 27.9749 40.5343 25.0803 40.1827L24.2883 40.0864L24.0743 40.062C23.9062 40.0421 23.7397 40.0109 23.576 39.9687Z" fill="black"/>
<path d="M36.5055 3.90471C38.2867 5.82134 39.2927 8.30761 39.335 10.8978C39.3772 13.488 38.4529 16.0044 36.7352 17.9757C36.6758 18.0445 36.604 18.1118 36.5305 18.1821C36.3343 18.3414 36.1795 18.5442 36.0791 18.7736C35.9713 19.0793 35.9604 19.6509 36.2244 19.897C36.3916 20.0285 36.6043 20.0915 36.818 20.0728C36.9911 20.0695 37.1638 20.0552 37.335 20.03C37.5397 20.0025 37.674 19.8389 37.7943 19.6952C37.8224 19.6616 37.849 19.628 37.8771 19.5989C40.1656 17.1366 41.2544 14.2937 41.3013 10.6513V10.6361V10.6192C41.2856 10.5031 41.2716 10.3563 41.2528 10.1882C41.2044 9.72968 41.1372 9.08772 41.0076 8.46564C40.531 6.17271 39.3925 4.06154 37.7271 2.38237C37.4288 2.07667 37.146 1.92383 36.8633 1.92383C36.7381 1.92442 36.6144 1.95024 36.4999 1.99968C36.3855 2.04912 36.2826 2.12111 36.1978 2.21118C36.1031 2.29316 36.0266 2.39321 35.9729 2.50518C35.9191 2.61714 35.8894 2.73867 35.8854 2.8623C35.8854 3.14354 36.026 3.42325 36.3259 3.71824C36.3853 3.77479 36.4368 3.83746 36.5055 3.90471Z" fill="black"/>
<path d="M34.2498 5.7786C34.2882 5.81182 34.3247 5.84702 34.3592 5.88407C35.6893 7.31317 36.4152 9.18321 36.3899 11.116C36.379 13.0373 35.6886 14.7751 34.342 16.2822C34.0822 16.5598 33.9126 16.9066 33.8546 17.2787C33.8644 17.4814 33.9501 17.6734 34.0952 17.8183C34.2046 17.9613 34.3664 18.0572 34.5466 18.0858H34.5935C34.9745 18.0854 35.3416 17.9458 35.6229 17.6945C37.3725 15.9077 38.2379 13.7816 38.3457 11.0059C38.3754 8.65211 37.4288 6.33496 35.6776 4.48247C35.6589 4.4626 35.6386 4.43967 35.6198 4.41674C35.5752 4.34795 35.517 4.28858 35.4486 4.24213C35.3802 4.19567 35.3029 4.16306 35.2215 4.14621L35.0887 4.13398C34.7497 4.10035 34.3639 4.06061 34.1639 4.27765C33.9296 4.52985 33.9359 4.95935 33.9608 5.34758C33.9969 5.52229 34.1004 5.67668 34.2498 5.7786Z" fill="black"/>
<path d="M32.1269 14.3396C31.9191 14.5811 31.3661 15.2261 32.03 15.836C32.2017 16.0114 32.4365 16.1145 32.6846 16.1233H32.7205C33.1032 16.1065 33.4094 15.8176 33.6062 15.6006C34.752 14.3545 35.3848 12.7369 35.3822 11.0607C35.3796 9.38451 34.7418 7.76882 33.5922 6.5261C33.3938 6.30906 33.0861 6.01865 32.6986 6.0049C32.5699 6.00416 32.4423 6.02974 32.3243 6.08001C32.2062 6.13028 32.1001 6.20414 32.0129 6.29684C31.3552 6.90822 31.9129 7.5517 32.1222 7.79167C33.8734 9.79395 33.8749 12.3022 32.1269 14.3396Z" fill="black"/>
<path d="M18.0178 11.992C18.0542 11.9943 18.0908 11.9943 18.1272 11.992C18.4052 11.9615 18.6302 11.7872 18.8489 11.6191C18.9348 11.5534 19.0144 11.4907 19.0941 11.4403L19.2003 11.3745L19.2097 10.8151L19.1066 10.7448C19.0246 10.6863 18.9459 10.6235 18.8707 10.5568C18.6427 10.3642 18.4146 10.164 18.1256 10.1732C17.7507 10.1854 17.3024 10.6317 17.2118 10.9802C17.1774 11.1007 17.1723 11.2274 17.1969 11.3502C17.2215 11.473 17.2751 11.5884 17.3534 11.6873C17.4317 11.7862 17.5326 11.8658 17.6479 11.9198C17.7633 11.9738 17.89 12.0006 18.0178 11.9981V11.992Z" fill="black"/>
<path d="M9.14028 12.001C9.19792 12.0012 9.25544 11.9961 9.31211 11.9857C9.57765 11.9113 9.81779 11.7682 10.0073 11.5715C10.09 11.5012 10.1635 11.4355 10.2431 11.3805L10.3462 11.3071L10.3197 10.7446L10.2135 10.6804C10.1271 10.6272 10.0437 10.5696 9.96352 10.5077C9.72451 10.3289 9.47457 10.147 9.19495 10.1699C8.81848 10.2036 8.39983 10.6789 8.33266 11.0305C8.30624 11.1621 8.31291 11.2981 8.35209 11.4267C8.39128 11.5553 8.46181 11.6727 8.5576 11.7687C8.63411 11.8433 8.72503 11.9023 8.82507 11.9422C8.92511 11.9821 9.03226 12.0021 9.14028 12.001Z" fill="black"/>
<path d="M15.0623 11.9979C15.1146 11.9983 15.1669 11.9942 15.2185 11.9857C15.4934 11.9383 15.709 11.7503 15.9168 11.5684C15.998 11.4966 16.073 11.4293 16.1511 11.3743L16.2511 11.3025L16.2308 10.7476L16.123 10.6834C16.0449 10.6361 15.9668 10.5749 15.8746 10.5092C15.6356 10.3304 15.3903 10.1454 15.1076 10.1714C14.7374 10.2035 14.3172 10.6773 14.2453 11.0273C14.2161 11.1562 14.22 11.2902 14.2568 11.4172C14.2937 11.5442 14.3621 11.6602 14.4562 11.7549C14.5354 11.833 14.6299 11.8948 14.734 11.9366C14.8382 11.9783 14.9498 11.9992 15.0623 11.9979Z" fill="black"/>
<path d="M20.9718 11.9935C21.0099 11.9932 21.048 11.9906 21.0858 11.9858C21.3608 11.9538 21.5841 11.7795 21.8013 11.6114C21.8856 11.5457 21.9575 11.483 22.0434 11.4325L22.1481 11.3668L22.1574 10.8013L22.0653 10.7371C21.9827 10.6792 21.9035 10.6169 21.8278 10.5506C21.6013 10.3611 21.3717 10.1655 21.0843 10.1746C20.7219 10.1869 20.2798 10.6332 20.186 10.9832C20.1498 11.103 20.143 11.2294 20.1662 11.3523C20.1895 11.4751 20.2421 11.5908 20.3198 11.6899C20.3975 11.7891 20.4981 11.8688 20.6133 11.9226C20.7285 11.9764 20.8551 12.0028 20.9827 11.9996L20.9718 11.9935Z" fill="black"/>
<path d="M12.1067 11.9919C12.1396 11.9919 12.1708 11.9919 12.2036 11.9919C12.4738 11.9383 12.7233 11.8117 12.9237 11.6266C13.0097 11.5624 13.0909 11.5012 13.1706 11.4523L13.2768 11.3866L13.2908 10.8195L13.1893 10.7477C13.1159 10.6973 13.0331 10.63 12.955 10.5597C12.73 10.3656 12.4973 10.1669 12.2161 10.1715C11.8521 10.1806 11.4038 10.63 11.3069 10.9693C11.2677 11.0961 11.2614 11.2304 11.2887 11.3601C11.3159 11.4899 11.3759 11.6109 11.4632 11.7122C11.5434 11.8016 11.6424 11.8729 11.7536 11.9211C11.8647 11.9694 11.9852 11.9936 12.1067 11.9919Z" fill="black"/>
</g>
<defs>
<clipPath id="clip0_348_1886">
<rect width="44.8548" height="43.9004" fill="white" transform="translate(0.88446 0.702637)"/>
</clipPath>
</defs>
</svg>
