<svg width="20" height="23" viewBox="0 0 20 23" fill="none" xmlns="http://www.w3.org/2000/svg">
<path d="M0.879268 9.22767L9.19401 0.912925C9.30443 0.801593 9.43579 0.713176 9.58054 0.652872C9.72528 0.592568 9.88055 0.561523 10.0374 0.561523C10.1942 0.561523 10.3494 0.592568 10.4942 0.652872C10.6389 0.713176 10.7703 0.801593 10.8807 0.912925L19.1954 9.22767C19.4149 9.44891 19.5386 9.74747 19.5399 10.0591V21.4503C19.5399 21.7653 19.4148 22.0674 19.192 22.2902C18.9692 22.513 18.6671 22.6381 18.3521 22.6381H12.413V16.699C12.413 16.069 12.1627 15.4648 11.7172 15.0192C11.2717 14.5737 10.6674 14.3234 10.0374 14.3234C9.40729 14.3234 8.80304 14.5737 8.35752 15.0192C7.912 15.4648 7.66171 16.069 7.66171 16.699V22.6381H1.72261C1.40758 22.6381 1.10547 22.513 0.882712 22.2902C0.659952 22.0674 0.53479 21.7653 0.53479 21.4503V10.0591C0.536102 9.74747 0.659825 9.44891 0.879268 9.22767Z" fill="#A09F9E"/>
</svg>
