<svg width="20" height="17" viewBox="0 0 20 17" fill="none" xmlns="http://www.w3.org/2000/svg">
    <g clip-path="url(#clip0_348_1969)"></g>
    <defs>
        <linearGradient id="paint0_linear_348_1969" x1="8.79236" y1="0.472656" x2="8.79236" y2="16.2103" gradientUnits="userSpaceOnUse">
            <stop stop-color="#FFC82E" />
            <stop offset="1" stop-color="#FF6029" />
        </linearGradient>
        <linearGradient id="paint1_linear_348_1969" x1="9.04123" y1="3.35449" x2="9.04123" y2="9.34871" gradientUnits="userSpaceOnUse">
            <stop stop-color="#FFC82E" />
            <stop offset="1" stop-color="#FF6029" />
        </linearGradient>
        <linearGradient id="paint2_linear_348_1969" x1="16.5527" y1="11.8022" x2="16.5527" y2="12.7579" gradientUnits="userSpaceOnUse">
            <stop stop-color="#FFC82E" />
            <stop offset="1" stop-color="#FF6029" />
        </linearGradient>
        <clipPath id="clip0_348_1969">
            <rect width="19.4266" height="15.7305" fill="white" transform="translate(0.138855 0.47998)" />
        </clipPath>
    </defs>
    <path d="M9.13179 16.2103H8.65395L7.61943 16.1721C6.7426 16.1554 5.83231 16.1386 4.92919 16.098C3.76088 16.0455 2.91988 15.7946 2.19834 15.2905C1.65816 14.9328 1.20714 14.4561 0.879935 13.897C0.552735 13.3379 0.358065 12.7112 0.310878 12.065C0.0850742 9.56546 0.0850742 7.0506 0.310878 4.55102C0.504403 2.46764 1.93076 0.967226 4.03086 0.62796C4.60893 0.531013 5.19364 0.479085 5.77975 0.472656H6.92179C8.62528 0.472656 10.6346 0.472662 12.6415 0.522835C14.075 0.553894 15.1908 1.00067 16.0533 1.87751C16.8489 2.68983 17.2694 3.71242 17.3363 5.00736C17.408 6.35248 17.482 8.12765 17.4199 9.94105C17.4156 10.0674 17.3613 10.1868 17.2691 10.2733C17.1768 10.3597 17.0541 10.406 16.9277 10.4022C16.865 10.4 16.8033 10.3855 16.7461 10.3595C16.689 10.3334 16.6375 10.2964 16.5947 10.2505C16.5519 10.2045 16.5185 10.1506 16.4965 10.0918C16.4746 10.033 16.4644 9.97037 16.4666 9.90761C16.5264 8.13244 16.4523 6.38353 16.383 5.05992C16.3732 4.12669 16.0114 3.23158 15.37 2.55365C14.6891 1.8584 13.7907 1.50958 12.6176 1.48569C10.6227 1.44029 8.61812 1.43551 6.9194 1.43551H5.77736C5.24245 1.44167 4.70883 1.48959 4.18138 1.57886C2.53044 1.84406 1.4123 3.01238 1.26178 4.64659C1.04074 7.08894 1.04074 9.54625 1.26178 11.9886C1.29992 12.4952 1.45345 12.9863 1.71061 13.4245C1.96777 13.8626 2.32176 14.2361 2.74547 14.5164C3.30932 14.9106 3.99741 15.1065 4.97221 15.1495C5.86338 15.1901 6.7641 15.2069 7.63854 15.2236H8.19762V15.2164H9.36594C9.79599 15.2164 10.2332 15.2164 10.6561 15.2164L11.1124 15.2021C11.8149 15.183 12.534 15.1638 13.2221 15.0826C13.2849 15.0754 13.3484 15.0806 13.4091 15.0979C13.4699 15.1153 13.5266 15.1444 13.5761 15.1837C13.6256 15.223 13.6668 15.2716 13.6975 15.3268C13.7282 15.382 13.7477 15.4427 13.7549 15.5055C13.7621 15.5682 13.7569 15.6318 13.7396 15.6925C13.7222 15.7533 13.6931 15.81 13.6538 15.8595C13.6145 15.9089 13.5659 15.9502 13.5107 15.9809C13.4555 16.0116 13.3948 16.0311 13.332 16.0383C12.6152 16.1219 11.8626 16.1434 11.1483 16.1625L10.6848 16.1769C10.2452 16.1912 9.79838 16.1769 9.36594 16.1769H9.12702L9.13179 16.2103Z" fill="url(#paint0_linear_348_1969)" />
    <path d="M9.00278 9.34871C8.39224 9.33835 7.80013 9.13791 7.30884 8.77529C6.7036 8.35473 6.13096 7.88912 5.59578 7.3824C4.81451 6.64175 4.04758 5.87481 3.30454 5.13416L3.26631 5.09594L2.41337 4.24538C2.38047 4.21118 2.34937 4.17529 2.32019 4.13787C2.24683 4.03879 2.2146 3.91519 2.23024 3.7929C2.24588 3.67061 2.30818 3.55911 2.40412 3.48168C2.50005 3.40425 2.6222 3.3669 2.74503 3.37743C2.86786 3.38796 2.98187 3.44555 3.06323 3.53817C3.07194 3.54793 3.07992 3.55832 3.08712 3.56923C3.37144 3.84877 3.65814 4.13547 3.94245 4.41979L3.98068 4.45801C4.71894 5.19388 5.4811 5.95604 6.25281 6.68953C6.75366 7.16329 7.28957 7.59857 7.85596 7.99164C8.61572 8.52205 9.37788 8.52205 10.183 7.99164L10.2882 7.92474C10.43 7.83999 10.5642 7.74328 10.6895 7.63566C11.6285 6.7636 12.62 5.82942 13.7238 4.78295C14.032 4.48908 14.3331 4.18803 14.6461 3.87744L15.0259 3.5095C15.0697 3.46179 15.1226 3.42346 15.1816 3.39683C15.2406 3.37019 15.3044 3.35582 15.3691 3.35458C15.4338 3.35334 15.4981 3.36525 15.558 3.38961C15.618 3.41396 15.6724 3.45024 15.7179 3.49625C15.7634 3.54225 15.7991 3.59702 15.8228 3.65724C15.8466 3.71746 15.8578 3.78186 15.8559 3.84655C15.8539 3.91124 15.8389 3.97487 15.8116 4.03357C15.7844 4.09227 15.7455 4.14483 15.6973 4.18804L15.3222 4.56076C15.0044 4.87613 14.6986 5.18194 14.3832 5.48059C13.2794 6.52945 12.2831 7.46602 11.3418 8.34763C11.176 8.49351 10.9977 8.62462 10.809 8.73946L10.7087 8.80635C10.2056 9.15063 9.61231 9.33925 9.00278 9.34871Z" fill="url(#paint1_linear_348_1969)" />
    <path d="M19.0876 12.7579H14.0177C13.891 12.7579 13.7694 12.7076 13.6798 12.618C13.5902 12.5284 13.5399 12.4068 13.5399 12.2801C13.5399 12.1534 13.5902 12.0318 13.6798 11.9422C13.7694 11.8526 13.891 11.8022 14.0177 11.8022H19.0876C19.2143 11.8022 19.3359 11.8526 19.4255 11.9422C19.5151 12.0318 19.5654 12.1534 19.5654 12.2801C19.5654 12.4068 19.5151 12.5284 19.4255 12.618C19.3359 12.7076 19.2143 12.7579 19.0876 12.7579Z" fill="url(#paint2_linear_348_1969)" />

</svg>