<svg width="38" height="47" viewBox="0 0 38 47" fill="none" xmlns="http://www.w3.org/2000/svg">
<g clip-path="url(#clip0_348_1897)">
<path d="M13.1847 4.23103C13.0429 1.74723 14.1361 0.279458 16.0977 0.196517C18.1226 0.112094 19.264 1.49544 19.3062 4.18068C19.561 4.19697 19.8248 4.22659 20.0872 4.22807C21.1924 4.22807 22.2991 4.23844 23.4043 4.22807C24.0375 4.22807 24.5999 4.27843 24.8834 4.97899C24.9407 5.11821 25.2905 5.2056 25.5061 5.21004C26.7123 5.23077 27.9185 5.21004 29.1247 5.22041C31.1104 5.22929 32.1523 6.24237 32.1523 8.18261C32.1583 16.4501 32.1583 24.7176 32.1523 32.9851V34.0115C32.4267 34.0841 32.683 34.1596 32.9424 34.2203C36.1524 34.9935 38.2949 37.9423 37.9542 41.1193C37.7903 42.6821 37.0504 44.132 35.8737 45.196C34.697 46.2599 33.1648 46.8644 31.5658 46.8956C30.7124 46.9193 29.8575 46.903 29.0026 46.903H3.53047C1.25073 46.903 0.285767 45.9506 0.285767 43.7038V8.39588C0.285767 6.2083 1.2824 5.22337 3.49428 5.22041C4.65074 5.22041 5.80719 5.2367 6.96213 5.2056C7.1883 5.2056 7.52302 5.05749 7.61047 4.89012C7.88187 4.35841 8.31007 4.22955 8.84834 4.23103C10.2747 4.234 11.704 4.23103 13.1847 4.23103ZM27.1767 45.4189C25.1186 43.3765 24.3813 41.1134 25.2166 38.52C26.0519 35.9266 28.0361 34.5432 30.7079 34.0293V33.4457C30.7079 25.0528 30.7079 16.6599 30.7079 8.26703C30.7079 8.02265 30.7425 7.72198 30.6174 7.54721C30.3867 7.22581 30.061 6.75335 29.755 6.73853C28.1643 6.65707 26.566 6.70002 24.9844 6.70002C24.9513 6.79676 24.9256 6.89577 24.9075 6.99624C24.7718 8.85502 24.3481 9.24011 22.4318 9.24011C18.4111 9.24011 14.3904 9.24011 10.3697 9.24011C8.02058 9.24011 7.82306 9.07423 7.49286 6.8274C7.46332 6.77509 7.429 6.72551 7.39034 6.67929H3.48373C2.0996 6.67929 1.76639 7.00957 1.76639 8.38996V43.7779C1.76639 45.1538 2.08452 45.4604 3.50936 45.4604H26.2766C26.5118 45.4589 26.753 45.4382 27.1767 45.4189ZM30.5556 41.0556C30.2028 40.7253 30.0037 40.4247 29.7263 40.3151C29.4489 40.2055 28.9845 40.121 28.7432 40.2603C28.3331 40.4987 28.3995 40.946 28.7056 41.2837C29.0538 41.6688 29.4489 42.0139 29.8107 42.3886C30.2977 42.8907 30.7425 42.8403 31.2205 42.359C32.1252 41.4437 33.06 40.5476 33.9842 39.6456C34.3536 39.2842 34.6175 38.8725 34.1772 38.4341C33.7369 37.9957 33.3148 38.2563 32.9529 38.6266C32.1719 39.416 31.3894 40.2099 30.5556 41.0556ZM16.3238 4.23103C16.7189 4.04886 17.4818 4.59835 17.7547 3.74968C17.9658 3.09059 17.8346 2.48334 17.2737 2.01679C16.5198 1.39325 15.3136 1.53247 14.8824 2.38855C14.6803 2.84534 14.6467 3.35707 14.7874 3.83558C14.8522 4.05034 15.4644 4.11255 15.8428 4.22511C16.0024 4.24508 16.1638 4.24707 16.3238 4.23103Z" fill="black"/>
<path d="M20.1596 14.8106C22.3428 14.8106 24.5321 14.8106 26.7108 14.8106C27.237 14.8106 27.7225 14.8921 27.7346 15.5112C27.7466 16.1303 27.2702 16.2606 26.744 16.2606H13.5646C13.0459 16.2606 12.5454 16.154 12.5393 15.5438C12.5393 14.8802 13.058 14.8032 13.6068 14.8032C15.7901 14.8106 17.9748 14.8106 20.1596 14.8106Z" fill="black"/>
<path d="M20.1098 21.8148C22.2207 21.8148 24.3285 21.8148 26.4334 21.8148C26.6836 21.8148 26.9852 21.76 27.1707 21.874C27.4119 22.0221 27.7089 22.3184 27.7059 22.545C27.7029 22.7716 27.3938 23.0485 27.1526 23.2041C26.9912 23.3077 26.7153 23.247 26.4891 23.247H13.7667C13.5661 23.247 13.3143 23.3107 13.1771 23.2159C12.9223 23.0352 12.6027 22.7716 12.574 22.5198C12.5469 22.3243 12.8846 22.0147 13.1304 21.8711C13.3204 21.76 13.6174 21.8148 13.8677 21.8148C15.9464 21.8128 18.0271 21.8128 20.1098 21.8148Z" fill="black"/>
<path d="M20.0977 30.2602C17.9145 30.2602 15.7313 30.2602 13.548 30.2602C13.0595 30.2602 12.5876 30.1891 12.5408 29.6189C12.4881 29.0043 12.9314 28.8384 13.4772 28.8399H19.8007C22.1126 28.8399 24.421 28.8399 26.7259 28.8399C27.2114 28.8399 27.6863 28.9021 27.733 29.4797C27.7828 30.0958 27.344 30.2617 26.7982 30.2617C24.5657 30.2568 22.3322 30.2563 20.0977 30.2602Z" fill="black"/>
<path d="M6.52337 15.6816C7.05108 15.1158 7.53658 14.59 8.03113 14.0687C8.39601 13.6821 8.82723 13.4763 9.26146 13.9206C9.6957 14.3649 9.44089 14.7278 9.08958 15.0714C8.43219 15.7127 7.77481 16.3525 7.12949 16.9968C6.67716 17.4412 6.23689 17.4945 5.7725 17.0235C5.51166 16.7584 5.23875 16.5036 4.97942 16.2385C4.65827 15.9097 4.57685 15.5409 4.9176 15.2017C5.25836 14.8626 5.63379 14.9188 5.9851 15.2151C6.11175 15.3187 6.23991 15.4343 6.52337 15.6816Z" fill="black"/>
<path d="M6.53544 22.7126C7.04054 22.1586 7.5366 21.6077 8.0432 21.0641C8.38547 20.6983 8.80764 20.5146 9.22227 20.8967C9.68666 21.3248 9.44391 21.735 9.0715 22.1023C8.4111 22.7422 7.75773 23.387 7.11141 24.0367C6.64551 24.5032 6.20675 24.481 5.75442 24.0219C5.51167 23.773 5.25535 23.5361 5.0126 23.2813C4.67185 22.9347 4.56027 22.5408 4.94626 22.1794C5.29455 21.8476 5.67451 21.9276 6.01677 22.2371C6.13136 22.3645 6.26103 22.4711 6.53544 22.7126Z" fill="black"/>
<path d="M6.5264 29.7254C7.06014 29.1478 7.5577 28.5983 8.06733 28.0607C8.41411 27.6978 8.82121 27.5186 9.24037 27.9259C9.65952 28.3332 9.46201 28.7287 9.10165 29.0797C8.42718 29.7383 7.75422 30.3993 7.08276 31.0629C6.64853 31.4924 6.2173 31.5072 5.77855 31.0629L5.03522 30.3327C4.69899 30.0009 4.5271 29.6173 4.89952 29.2322C5.29455 28.8264 5.70919 28.9612 6.0801 29.3196C6.16755 29.4129 6.26405 29.4914 6.5264 29.7254Z" fill="black"/>
</g>
<defs>
<clipPath id="clip0_348_1897">
<rect width="37.7061" height="46.7228" fill="white" transform="translate(0.285767 0.193848)"/>
</clipPath>
</defs>
</svg>
