<svg width="46" height="45" viewBox="0 0 46 45" fill="none" xmlns="http://www.w3.org/2000/svg">
<g clip-path="url(#clip0_348_1916)">
<path d="M21.8987 43.162C17.6787 43.162 13.5536 41.9107 10.0448 39.5662C6.53606 37.2218 3.80131 33.8894 2.18641 29.9907C0.571506 26.092 0.148987 21.802 0.972257 17.6631C1.79553 13.5243 3.82762 9.72252 6.81157 6.73857C9.79552 3.75462 13.5973 1.72253 17.7362 0.899259C21.875 0.0759895 26.1651 0.498449 30.0638 2.11335C33.9625 3.72825 37.2948 6.46303 39.6392 9.97178C41.9837 13.4805 43.2351 17.6057 43.2351 21.8257H39.948C39.948 18.2559 38.8894 14.7662 36.9062 11.798C34.9229 8.82977 32.1039 6.51637 28.8059 5.15026C25.5078 3.78415 21.8787 3.42666 18.3774 4.1231C14.8762 4.81954 11.6601 6.53859 9.13587 9.06284C6.61162 11.5871 4.8926 14.8032 4.19616 18.3044C3.49972 21.8056 3.85718 25.4348 5.22329 28.7329C6.5894 32.031 8.90283 34.8499 11.871 36.8332C14.8392 38.8164 18.3289 39.875 21.8987 39.875V43.162Z" fill="#191919"/>
<path d="M42.2707 26.747C42.505 26.747 42.737 26.7935 42.9532 26.8837C43.1694 26.974 43.3656 27.1061 43.5304 27.2727C43.6951 27.4393 43.8252 27.637 43.9131 27.8542C44.0009 28.0714 44.0448 28.3038 44.0422 28.5381V41.3715C44.0448 41.6058 44.0009 41.8382 43.9131 42.0554C43.8252 42.2726 43.6951 42.4703 43.5304 42.6369C43.3656 42.8035 43.1694 42.9356 42.9532 43.0259C42.737 43.1161 42.505 43.1626 42.2707 43.1626H29.4177C29.1834 43.1626 28.9514 43.1161 28.7352 43.0259C28.519 42.9356 28.3229 42.8035 28.1581 42.6369C27.9933 42.4703 27.8633 42.2726 27.7754 42.0554C27.6875 41.8382 27.6437 41.6058 27.6463 41.3715V28.5381C27.6437 28.3038 27.6875 28.0714 27.7754 27.8542C27.8633 27.637 27.9933 27.4393 28.1581 27.2727C28.3229 27.1061 28.519 26.974 28.7352 26.8837C28.9514 26.7935 29.1834 26.747 29.4177 26.747H42.2707ZM42.2707 25.1133H29.4177C28.9689 25.1133 28.5245 25.202 28.1101 25.3743C27.6956 25.5467 27.3194 25.7993 27.0029 26.1176C26.6865 26.4359 26.4361 26.8136 26.2661 27.229C26.0961 27.6444 26.01 28.0893 26.0126 28.5381V41.3715C26.01 41.8203 26.0961 42.2652 26.2661 42.6806C26.4361 43.096 26.6865 43.4737 27.0029 43.792C27.3194 44.1103 27.6956 44.3629 28.1101 44.5353C28.5245 44.7076 28.9689 44.7963 29.4177 44.7963H42.2707C42.7205 44.7963 43.1659 44.7077 43.5814 44.5356C43.9969 44.3635 44.3745 44.1112 44.6925 43.7932C45.0105 43.4752 45.2628 43.0976 45.4349 42.682C45.607 42.2665 45.6956 41.8212 45.6956 41.3715V28.5381C45.6956 28.0884 45.607 27.6431 45.4349 27.2275C45.2628 26.812 45.0105 26.4344 44.6925 26.1164C44.3745 25.7984 43.9969 25.5461 43.5814 25.374C43.1659 25.2019 42.7205 25.1133 42.2707 25.1133Z" fill="#191919"/>
<path d="M33.374 23.4795H31.7403V28.4002H33.374V23.4795Z" fill="#191919"/>
<path d="M36.6611 23.4795H35.0274V28.4002H36.6611V23.4795Z" fill="#191919"/>
<path d="M39.9482 23.4795H38.3145V28.4002H39.9482V23.4795Z" fill="#191919"/>
<path d="M40.3816 34.247C41.045 34.247 41.5828 33.7092 41.5828 33.0459C41.5828 32.3825 41.045 31.8447 40.3816 31.8447C39.7183 31.8447 39.1805 32.3825 39.1805 33.0459C39.1805 33.7092 39.7183 34.247 40.3816 34.247Z" fill="#191919"/>
<path d="M40.3816 37.8686C41.045 37.8686 41.5828 37.3308 41.5828 36.6674C41.5828 36.0041 41.045 35.4663 40.3816 35.4663C39.7183 35.4663 39.1805 36.0041 39.1805 36.6674C39.1805 37.3308 39.7183 37.8686 40.3816 37.8686Z" fill="#191919"/>
<path d="M35.5396 37.8686C36.203 37.8686 36.7407 37.3308 36.7407 36.6674C36.7407 36.0041 36.203 35.4663 35.5396 35.4663C34.8763 35.4663 34.3385 36.0041 34.3385 36.6674C34.3385 37.3308 34.8763 37.8686 35.5396 37.8686Z" fill="#191919"/>
<path d="M30.6976 37.8686C31.361 37.8686 31.8987 37.3308 31.8987 36.6674C31.8987 36.0041 31.361 35.4663 30.6976 35.4663C30.0342 35.4663 29.4965 36.0041 29.4965 36.6674C29.4965 37.3308 30.0342 37.8686 30.6976 37.8686Z" fill="#191919"/>
<path d="M40.3816 41.5102C41.045 41.5102 41.5828 40.9724 41.5828 40.309C41.5828 39.6457 41.045 39.1079 40.3816 39.1079C39.7183 39.1079 39.1805 39.6457 39.1805 40.309C39.1805 40.9724 39.7183 41.5102 40.3816 41.5102Z" fill="#191919"/>
<path d="M35.5396 41.5102C36.203 41.5102 36.7407 40.9724 36.7407 40.309C36.7407 39.6457 36.203 39.1079 35.5396 39.1079C34.8763 39.1079 34.3385 39.6457 34.3385 40.309C34.3385 40.9724 34.8763 41.5102 35.5396 41.5102Z" fill="#191919"/>
<path d="M30.6976 41.5102C31.361 41.5102 31.8987 40.9724 31.8987 40.309C31.8987 39.6457 31.361 39.1079 30.6976 39.1079C30.0342 39.1079 29.4965 39.6457 29.4965 40.309C29.4965 40.9724 30.0342 41.5102 30.6976 41.5102Z" fill="#191919"/>
<path d="M23.2176 25.1129H13.3761C13.1615 25.1129 12.9491 25.0707 12.7509 24.9886C12.5527 24.9065 12.3726 24.7861 12.2209 24.6344C12.0692 24.4827 11.9488 24.3026 11.8667 24.1044C11.7846 23.9062 11.7424 23.6937 11.7424 23.4792C11.7423 23.0441 11.9138 22.6265 12.2197 22.317C12.5255 22.0075 12.941 21.8311 13.3761 21.8259H19.9305V13.6377C19.9356 13.2008 20.1115 12.7833 20.4204 12.4743C20.7294 12.1653 21.147 11.9895 21.5839 11.9844C22.019 11.9896 22.4345 12.166 22.7403 12.4755C23.0461 12.785 23.2176 13.2026 23.2176 13.6377V25.1129Z" fill="#191919"/>
</g>
<defs>
<clipPath id="clip0_348_1916">
<rect width="45.1135" height="44.2868" fill="white" transform="translate(0.582092 0.509277)"/>
</clipPath>
</defs>
</svg>
