<svg width="34" height="45" viewBox="0 0 34 45" fill="none" xmlns="http://www.w3.org/2000/svg">
<g clip-path="url(#clip0_348_1906)">
<path d="M0.573912 22.5658C0.573912 16.9833 0.573912 11.3995 0.573912 5.8129C0.573912 3.33644 2.07808 1.4693 4.40765 1.014C4.76403 0.953376 5.12546 0.927132 5.48691 0.935637C11.5049 0.935637 17.523 0.935636 23.5424 0.922126C23.8341 0.912017 24.1247 0.964455 24.3943 1.07588C24.6638 1.1873 24.9062 1.35511 25.1049 1.56792C27.7522 4.22407 30.408 6.86851 33.0724 9.50124C33.2784 9.69216 33.4412 9.9245 33.55 10.1828C33.6589 10.4411 33.7112 10.7195 33.7037 10.9996C33.6956 20.4325 33.6915 29.8651 33.6915 39.2971C33.6915 42.2073 31.6918 44.1785 28.7826 44.1798C21.0228 44.1852 13.263 44.1852 5.5032 44.1798C2.56137 44.1798 0.579343 42.2005 0.573912 39.2485C0.569387 33.6876 0.569387 28.1267 0.573912 22.5658ZM22.6613 3.48641H5.58058C3.92707 3.48641 3.14376 4.27271 3.14376 5.93855C3.14376 17.0171 3.14376 28.0929 3.14376 39.1661C3.14376 40.8616 3.92436 41.6304 5.63759 41.6304H28.6454C30.3519 41.6304 31.1284 40.8589 31.1284 39.1553C31.1284 30.3285 31.1284 21.5039 31.1284 12.6816C31.1284 12.4425 31.1053 12.2033 31.0904 11.9061H30.2976C28.2613 11.9061 26.2249 11.9061 24.1886 11.9061C23.112 11.9061 22.6736 11.4697 22.6681 10.3862C22.6586 8.78789 22.6681 7.18826 22.6681 5.58998L22.6613 3.48641ZM29.3242 9.36884L25.4484 5.32653L25.1959 5.50892C25.1959 6.67216 25.1864 7.83406 25.2081 8.99596C25.2081 9.1216 25.3887 9.34993 25.4891 9.35263C26.6946 9.3783 27.9029 9.3702 29.3242 9.3702V9.36884Z" fill="black"/>
<path d="M7.36439 23.2776C7.36439 22.0387 7.36439 20.8012 7.36439 19.5622C7.36439 18.4949 7.81103 18.0464 8.86721 17.9788C10.4678 17.8775 11.6746 17.1209 12.3833 15.701C12.7905 14.8782 13.3689 14.5742 14.2689 14.5931C16.2143 14.635 18.161 14.6269 20.1064 14.5931C20.9209 14.5796 21.464 14.8701 21.8373 15.6131C22.584 17.1087 23.8207 17.8991 25.5095 17.9815C26.3742 18.0248 26.8996 18.4949 26.8969 19.3326C26.8847 22.2346 26.9634 25.142 26.7693 28.0373C26.4381 32.9673 22.3966 37.7189 17.6139 39.0132C17.2424 39.0942 16.8558 39.0732 16.4953 38.9524C11.1357 37.2744 7.46349 32.3188 7.36982 26.6579C7.35082 25.5325 7.36982 24.4071 7.36982 23.2803L7.36439 23.2776ZM9.93425 24.1247C9.93425 24.9799 9.92339 25.8351 9.93425 26.6917C9.95177 28.7655 10.5917 30.7868 11.7719 32.496C12.9521 34.2052 14.6187 35.5244 16.5578 36.2841C16.9291 36.4158 17.3349 36.4158 17.7063 36.2841C19.6358 35.5295 21.2959 34.22 22.4746 32.5226C23.6533 30.8253 24.2972 28.8169 24.3243 26.7538C24.3569 24.8408 24.3243 22.9277 24.3447 21.0146C24.3447 20.5782 24.2198 20.3837 23.7935 20.2688C22.1848 19.8392 20.9304 18.8962 19.9802 17.5316C19.9042 17.4324 19.8089 17.3494 19.6999 17.2877C19.591 17.2259 19.4707 17.1867 19.3462 17.1723C17.8773 17.1412 16.4071 17.1439 14.9368 17.1723C14.8217 17.1794 14.7093 17.2102 14.6067 17.2628C14.5041 17.3153 14.4136 17.3885 14.3409 17.4776C13.3702 18.8921 12.0805 19.8581 10.4135 20.2959C10.0334 20.3958 9.92202 20.5769 9.93017 20.9525C9.94782 22.009 9.93425 23.0668 9.93425 24.1247Z" fill="black"/>
<path d="M15.9564 27.5885C16.5442 26.9481 17.0166 26.4077 17.5176 25.8929C18.2085 25.1809 18.9186 24.4865 19.6272 23.7921C20.3358 23.0976 21.0974 23.0368 21.6459 23.5975C22.1943 24.1582 22.1278 24.881 21.4518 25.5592C19.9865 27.0292 18.5163 28.4932 17.0411 29.9515C16.2428 30.7378 15.6278 30.731 14.8255 29.9434C14.1332 29.2678 13.4435 28.5815 12.7648 27.8898C12.1389 27.2534 12.0968 26.5131 12.629 25.9767C13.1612 25.4403 13.9241 25.4849 14.5513 26.101C14.9911 26.5266 15.393 26.9859 15.9564 27.5885Z" fill="black"/>
</g>
<defs>
<clipPath id="clip0_348_1906">
<rect width="33.1325" height="43.2563" fill="white" transform="translate(0.57254 0.927246)"/>
</clipPath>
</defs>
</svg>
