<svg width="24" height="23" viewBox="0 0 24 23" fill="none" xmlns="http://www.w3.org/2000/svg">
<path d="M11.04 21.7933C8.89601 21.7933 6.8002 21.1575 5.01757 19.9664C3.23495 18.7753 1.84555 17.0823 1.0251 15.1016C0.204643 13.1208 -0.0100185 10.9412 0.408245 8.83849C0.826509 6.73574 1.85892 4.80426 3.37492 3.28826C4.89092 1.77226 6.82243 0.739847 8.92518 0.321583C11.0279 -0.0966805 13.2075 0.117951 15.1882 0.938405C17.169 1.75886 18.862 3.14827 20.0531 4.9309C21.2442 6.71353 21.88 8.80935 21.88 10.9533H20.21C20.21 9.13964 19.6721 7.36669 18.6645 5.85869C17.6569 4.35069 16.2248 3.17537 14.5492 2.48131C12.8736 1.78726 11.0298 1.60564 9.25097 1.95946C7.47217 2.31329 5.83823 3.18666 4.55578 4.46911C3.27333 5.75155 2.39998 7.38549 2.04615 9.1643C1.69233 10.9431 1.87393 12.7869 2.56799 14.4625C3.26205 16.1381 4.43739 17.5703 5.94538 18.5779C7.45338 19.5855 9.2263 20.1233 11.04 20.1233V21.7933Z" fill="white"/>
<path d="M21.39 13.4531C21.509 13.4531 21.6268 13.4767 21.7367 13.5225C21.8465 13.5684 21.9462 13.6355 22.0299 13.7202C22.1136 13.8048 22.1797 13.9052 22.2243 14.0156C22.269 14.1259 22.2913 14.244 22.29 14.363V20.8831C22.2913 21.0021 22.269 21.1202 22.2243 21.2305C22.1797 21.3409 22.1136 21.4413 22.0299 21.5259C21.9462 21.6106 21.8465 21.6777 21.7367 21.7236C21.6268 21.7694 21.509 21.793 21.39 21.793H14.86C14.7409 21.793 14.6231 21.7694 14.5132 21.7236C14.4034 21.6777 14.3037 21.6106 14.22 21.5259C14.1363 21.4413 14.0702 21.3409 14.0256 21.2305C13.9809 21.1202 13.9586 21.0021 13.96 20.8831V14.363C13.9586 14.244 13.9809 14.1259 14.0256 14.0156C14.0702 13.9052 14.1363 13.8048 14.22 13.7202C14.3037 13.6355 14.4034 13.5684 14.5132 13.5225C14.6231 13.4767 14.7409 13.4531 14.86 13.4531H21.39ZM21.39 12.623H14.86C14.6319 12.623 14.4061 12.6681 14.1956 12.7557C13.9851 12.8432 13.7939 12.9716 13.6331 13.1333C13.4723 13.295 13.3451 13.4869 13.2588 13.6979C13.1724 13.909 13.1286 14.135 13.13 14.363V20.8831C13.1286 21.1111 13.1724 21.3371 13.2588 21.5482C13.3451 21.7592 13.4723 21.9511 13.6331 22.1128C13.7939 22.2745 13.9851 22.4029 14.1956 22.4904C14.4061 22.578 14.6319 22.6231 14.86 22.623H21.39C21.6185 22.623 21.8447 22.578 22.0558 22.4906C22.2669 22.4032 22.4588 22.275 22.6203 22.1134C22.7819 21.9518 22.9101 21.76 22.9975 21.5489C23.085 21.3378 23.13 21.1116 23.13 20.8831V14.363C23.13 14.1345 23.085 13.9083 22.9975 13.6972C22.9101 13.4861 22.7819 13.2943 22.6203 13.1327C22.4588 12.9711 22.2669 12.8429 22.0558 12.7555C21.8447 12.668 21.6185 12.623 21.39 12.623Z" fill="white"/>
<path d="M16.87 11.793H16.04V14.293H16.87V11.793Z" fill="white"/>
<path d="M18.54 11.793H17.71V14.293H18.54V11.793Z" fill="white"/>
<path d="M20.21 11.793H19.38V14.293H20.21V11.793Z" fill="white"/>
<path d="M20.43 17.263C20.7669 17.263 21.04 16.9899 21.04 16.653C21.04 16.3161 20.7669 16.043 20.43 16.043C20.0931 16.043 19.82 16.3161 19.82 16.653C19.82 16.9899 20.0931 17.263 20.43 17.263Z" fill="white"/>
<path d="M20.43 19.1028C20.7669 19.1028 21.04 18.8297 21.04 18.4928C21.04 18.1559 20.7669 17.8828 20.43 17.8828C20.0931 17.8828 19.82 18.1559 19.82 18.4928C19.82 18.8297 20.0931 19.1028 20.43 19.1028Z" fill="white"/>
<path d="M17.97 19.1028C18.3069 19.1028 18.58 18.8297 18.58 18.4928C18.58 18.1559 18.3069 17.8828 17.97 17.8828C17.6331 17.8828 17.36 18.1559 17.36 18.4928C17.36 18.8297 17.6331 19.1028 17.97 19.1028Z" fill="white"/>
<path d="M15.51 19.1028C15.8469 19.1028 16.12 18.8297 16.12 18.4928C16.12 18.1559 15.8469 17.8828 15.51 17.8828C15.1731 17.8828 14.9 18.1559 14.9 18.4928C14.9 18.8297 15.1731 19.1028 15.51 19.1028Z" fill="white"/>
<path d="M20.43 20.9529C20.7669 20.9529 21.04 20.6798 21.04 20.3429C21.04 20.006 20.7669 19.7329 20.43 19.7329C20.0931 19.7329 19.82 20.006 19.82 20.3429C19.82 20.6798 20.0931 20.9529 20.43 20.9529Z" fill="white"/>
<path d="M17.97 20.9529C18.3069 20.9529 18.58 20.6798 18.58 20.3429C18.58 20.006 18.3069 19.7329 17.97 19.7329C17.6331 19.7329 17.36 20.006 17.36 20.3429C17.36 20.6798 17.6331 20.9529 17.97 20.9529Z" fill="white"/>
<path d="M15.51 20.9529C15.8469 20.9529 16.12 20.6798 16.12 20.3429C16.12 20.006 15.8469 19.7329 15.51 19.7329C15.1731 19.7329 14.9 20.006 14.9 20.3429C14.9 20.6798 15.1731 20.9529 15.51 20.9529Z" fill="white"/>
<path d="M11.71 12.6231H6.70996C6.60096 12.6231 6.49303 12.6016 6.39233 12.5599C6.29163 12.5182 6.20013 12.4571 6.12306 12.38C6.04599 12.3029 5.98486 12.2114 5.94315 12.1107C5.90143 12.01 5.87996 11.9021 5.87996 11.7931C5.87994 11.572 5.96708 11.3599 6.12245 11.2026C6.27783 11.0454 6.48892 10.9558 6.70996 10.9531H10.04V6.79309C10.0426 6.57112 10.1319 6.359 10.2889 6.20203C10.4458 6.04506 10.658 5.95572 10.88 5.95312C11.101 5.95576 11.3121 6.04539 11.4675 6.20264C11.6229 6.35988 11.71 6.57203 11.71 6.79309V12.6231Z" fill="white"/>
</svg>
