<svg xmlns="http://www.w3.org/2000/svg" viewBox="0 0 203 177.15"><defs><style>.cls-1{fill:#397cb7;}</style></defs><g id="Layer_2" data-name="Layer 2"><g id="Layer_1-2" data-name="Layer 1"><path class="cls-1" d="M169.23,177.09a101.61,101.61,0,0,0,32.64-90.76c-.07-.47-.15-.94-.23-1.41q-1-5.73-2.63-11.59c-.25-.89-.5-1.77-.78-2.65a101.59,101.59,0,0,0-35.41-50.06A103.37,103.37,0,0,0,105.32.08c-.7,0-1.39,0-2.09-.06-1.45,0-2.91,0-4.37,0A105,105,0,0,0,87.15,1l-1.64.25c-1.45.23-2.9.49-4.33.78a2,2,0,0,0-.26.06L79,2.51c-.22,0-.43.09-.65.15s-.7.16-1,.25l-1.67.43c-.73.19-1.46.39-2.19.61s-1.42.42-2.13.64q-3.6,1.14-7.14,2.56a105,105,0,0,0-26,15.06c-.41.31-.81.64-1.2,1A101.49,101.49,0,0,0,33.8,177.12c9.4-5.13,18.45-10.07,27.5-15,11.3-6.18,11.4-6.18,11.19-19.08a18.42,18.42,0,0,0-2-6.95c-3.08-6.85-6.35-13.61-9.57-20.4a12.68,12.68,0,0,0-1.8-3.23,15.53,15.53,0,0,1-4.17-10.94c0-4.23-.12-8.46,0-12.69.08-2,.13-4.42,1.2-6,2.66-3.83,2.29-8,2.29-12.18,0-4,0-8-.05-12-.26-14.07,6.88-25.48,20-30.58a62.77,62.77,0,0,1,44.66-.5c14.32,5.07,21.56,16.54,21.27,31.79-.08,4.34,0,8.69,0,13-.05,3.43,0,6.71,2.06,9.82,1.07,1.58,1.33,3.9,1.41,5.9.2,4.8.54,9.67-.1,14.39-.45,3.33-1.56,7.55-3.92,9.42-4.21,3.32-5.64,7.8-7.81,12.09-1.44,2.86-2.66,5.95-4.67,8.36-4,4.8-4.92,10.09-4.75,16.16.15,5.63,2.24,9.16,7.29,11.59q16.22,7.8,32.16,16.18a4.8,4.8,0,0,0,3.21.77"/></g></g></svg>