<svg width="61" height="63" viewBox="0 0 61 63" fill="none" xmlns="http://www.w3.org/2000/svg">
    <g clip-path="url(#clip0_819_790)">
        <path d="M17.606 22.405C17.5739 21.7549 17.6875 21.1058 17.9384 20.5058C18.1893 19.9058 18.5711 19.3702 19.0556 18.9386C19.7618 18.2923 20.4096 17.582 21.0945 16.909C22.2786 15.7446 23.4786 15.7393 24.6574 16.909C25.8361 18.0787 27.052 19.2911 28.2255 20.5036C29.3989 21.716 29.4096 22.891 28.2255 24.1142C27.5671 24.7925 26.9087 25.4655 26.2184 26.1118C26.0399 26.2427 25.9179 26.4373 25.8774 26.6558C25.8369 26.8742 25.8811 27.1 26.0007 27.2868C27.0654 29.3571 28.4793 31.2258 30.1795 32.8096C31.637 34.3079 33.3351 35.5483 35.2025 36.4789C35.3539 36.5783 35.5371 36.6165 35.7153 36.5858C35.8936 36.5551 36.0536 36.4578 36.1635 36.3133C36.8467 35.6012 37.5458 34.889 38.2609 34.1769C39.4609 32.9965 40.6503 32.9965 41.8503 34.1769C43.0503 35.3573 44.1919 36.5163 45.3547 37.6967C46.6131 38.9786 46.5972 40.1696 45.3228 41.4355C44.7016 42.0604 44.0591 42.6586 43.4751 43.3156C42.9562 43.9003 42.2979 44.3425 41.5622 44.6004C40.8264 44.8583 40.0375 44.9235 39.2697 44.7897C37.4308 44.5638 35.6469 44.0084 34.0025 43.15C27.7691 40.1088 22.6954 35.1007 19.5547 28.8892C18.5966 27.1398 17.9598 25.2309 17.6751 23.2542C17.6379 23.0032 17.6273 22.7041 17.606 22.405Z" fill="#55B43D" />
        <path d="M30.2644 0.276863C24.6179 0.272843 19.0851 1.87299 14.303 4.89307C9.52088 7.91315 5.68387 12.2304 3.23376 17.3476C0.783651 22.4649 -0.179947 28.1742 0.453913 33.8182C1.08777 39.4622 3.29332 44.8113 6.81662 49.2498L2.12281 62.2769L16.2626 57.16C20.2898 59.2917 24.7462 60.4739 29.2946 60.617C33.8431 60.7602 38.3643 59.8606 42.516 57.9864C46.6677 56.1121 50.3412 53.3124 53.2583 49.799C56.1754 46.2857 58.2597 42.1508 59.3535 37.7074C60.4472 33.264 60.5217 28.6285 59.5713 24.1519C58.6209 19.6753 56.6706 15.4748 53.8679 11.8684C51.0652 8.26205 47.4837 5.34431 43.3943 3.33606C39.305 1.32781 34.8151 0.281677 30.2644 0.276863ZM30.2644 57.9612C25.4273 57.9598 20.6769 56.6698 16.4963 54.2224L13.3476 55.3654L6.55645 57.8384L8.81838 51.5358L9.83254 48.721C9.13675 47.9412 8.4895 47.1189 7.89449 46.2588C4.37871 41.2188 2.64629 35.1376 2.97476 28.9895C3.30322 22.8413 5.67355 16.982 9.70605 12.35C13.7386 7.71807 19.1999 4.58159 25.2151 3.44302C31.2304 2.30444 37.4515 3.22967 42.8818 6.07048C48.3122 8.91128 52.6376 13.5033 55.1651 19.1109C57.6926 24.7184 58.2759 31.0171 56.8217 36.9978C55.3675 42.9785 51.9598 48.2952 47.1446 52.0962C42.3293 55.8972 36.3852 57.9625 30.2644 57.9612Z" fill="#55B43D" />
    </g>
    <defs>
        <clipPath id="clip0_819_790">
            <rect width="60" height="62" fill="white" transform="translate(0.264404 0.276855)" />
        </clipPath>
    </defs>
</svg>