<svg xmlns="http://www.w3.org/2000/svg" xmlns:xlink="http://www.w3.org/1999/xlink" viewBox="0 0 18.16 15.41">
    <g id="Layer_2" data-name="Layer 2">
        <g id="Layer_1-2" data-name="Layer 1">
            <g class="cls-2">
                <path class="cls-3" d="M8.53,1.26l-1.6.42c-1.39.37-2.78.75-4.18,1.1a.45.45,0,0,0-.41.53c0,3.54,0,7.09,0,10.63,0,.39,0,.39.39.39H8.51c0-.15,0-.27,0-.38V4.55c0-.61.17-.78.8-.78h6.83c.61,0,.77.17.77.77V14c0,.37,0,.37.37.37h.87v1.08H0V14.33c.29,0,.59,0,.89,0s.35-.08.35-.35q0-5.62,0-11.27c0-.58.07-.68.65-.84C4.18,1.26,6.47.67,8.75,0c.53-.14.95.07.91.69s0,1.06,0,1.59c0,.2-.06.27-.26.26s-.64.08-.79-.06S8.54,2,8.53,1.75,8.53,1.46,8.53,1.26Zm4.19,11.5h.57c.88,0,.88,0,.85-.87,0-.21-.09-.26-.29-.26H12.14c-.87,0-.87,0-.85.87,0,.18.07.27.27.26Zm0-5.25h.59c.89,0,.88,0,.83-.88,0-.17-.07-.23-.24-.23H11.53c-.16,0-.24.06-.24.23s0,.43,0,.64.08.24.26.24h1.17Zm0,2.62h1.19c.17,0,.25-.05.25-.22s0-.45,0-.67S14.07,9,13.92,9h-2.4c-.17,0-.23.06-.22.23s0,.43,0,.64.06.24.23.23Z" transform="translate(0 0)" />
                <path class="cls-3" d="M4.1,4.89V3.79H6.58c.17,0,.23,0,.23.22.05.89.05.89-.84.89Z" transform="translate(0 0)" />
                <path class="cls-3" d="M4.11,11.64H6.63c.06,0,.16.12.17.18a4.45,4.45,0,0,1,0,.73c0,.07-.11.18-.17.18H4.1Z" transform="translate(0 0)" />
                <path class="cls-3" d="M5.44,7.52H4.36c-.21,0-.29,0-.29-.26,0-.86,0-.86.85-.86H6.51c.22,0,.32,0,.3.28a5.23,5.23,0,0,0,0,.56c0,.23-.08.29-.3.28Z" transform="translate(0 0)" />
                <path class="cls-3" d="M5.43,10.13c-.36,0-.72,0-1.08,0s-.29-.08-.27-.28,0-.43,0-.64A.26.26,0,0,1,4.28,9H6.61c.15,0,.19.06.2.2.07.91.08.91-.84.91Z" transform="translate(0 0)" />
            </g>
        </g>
    </g>
    <defs>
        <clipPath id="clip-path" transform="translate(0 0)">
            <rect class="cls-1" width="18.16" height="15.41" />
        </clipPath>
    </defs>
</svg>