<svg xmlns="http://www.w3.org/2000/svg" viewBox="0 0 15 17">
    <defs>
        <!-- <style>.cls-1{fill:#50555c;}</style> -->
    </defs>
    <g id="Layer_2" data-name="Layer 2">
        <g id="Layer_1-2" data-name="Layer 1">
            <path class="cls-1" d="M1.52,5.91A6.05,6.05,0,0,1,6.73.06a6.07,6.07,0,0,1,6.75,6.53,8.68,8.68,0,0,1-1.78,4.49,17.62,17.62,0,0,1-3.87,3.84.44.44,0,0,1-.59,0A16.12,16.12,0,0,1,2.42,9.63,7.47,7.47,0,0,1,1.52,5.91Zm6-2.43A2.66,2.66,0,0,0,4.89,6.15,2.66,2.66,0,0,0,7.48,8.89a2.66,2.66,0,0,0,2.64-2.66A2.67,2.67,0,0,0,7.54,3.48Z" />
            <path class="cls-1" d="M7.51,16.27a20.2,20.2,0,0,0,5.19-.68,6.94,6.94,0,0,0,1.09-.45c.18-.09.41-.29.42-.45s-.23-.38-.4-.45c-.6-.25-1.21-.45-1.82-.66-.16-.05-.33-.06-.5-.1a.4.4,0,0,1-.33-.46.37.37,0,0,1,.47-.3,8,8,0,0,1,2.38.74,3.08,3.08,0,0,1,.6.42,1,1,0,0,1,0,1.58,3.7,3.7,0,0,1-.9.57,10.88,10.88,0,0,1-3.35.81,24.65,24.65,0,0,1-5.63,0,11.65,11.65,0,0,1-3.3-.76,4.09,4.09,0,0,1-1-.65,1,1,0,0,1,0-1.51,4.33,4.33,0,0,1,1.21-.71,12.26,12.26,0,0,1,1.73-.48c.3-.08.5,0,.54.29s-.12.38-.42.47c-.69.2-1.38.4-2.06.65-.25.09-.61.24-.57.55s.34.41.57.52a8.73,8.73,0,0,0,3,.8C5.43,16.14,6.47,16.19,7.51,16.27Z" />
        </g>
    </g>
</svg>