<svg width="16" height="16" viewBox="0 0 16 16" fill="none" xmlns="http://www.w3.org/2000/svg">
<g clip-path="url(#clip0_821_409)">
<path d="M0.536536 7.55598C0.536536 7.26502 0.533706 6.97407 0.536536 6.68359C0.540308 6.36623 0.714314 6.19175 1.03592 6.18704C1.38157 6.18185 1.7277 6.17902 2.07335 6.18704C2.32846 6.19364 2.48031 6.08801 2.56896 5.84516C2.69251 5.50658 2.83633 5.17507 2.98299 4.84592C3.08154 4.62476 3.05891 4.43755 2.8849 4.26637C2.63875 4.02399 2.39432 3.77957 2.15163 3.5331C1.91585 3.29119 1.90972 3.05163 2.14408 2.8135C2.54114 2.41047 2.94118 2.01043 3.3442 1.61338C3.58517 1.3776 3.82331 1.3776 4.0638 1.61338C4.3043 1.84916 4.55658 2.09908 4.79708 2.34712C4.9758 2.5315 5.16725 2.54754 5.39596 2.44143C5.71709 2.29572 6.04247 2.1585 6.37303 2.03542C6.61164 1.94724 6.72765 1.79964 6.72199 1.54264C6.71444 1.19699 6.7168 0.851334 6.72199 0.505209C6.72623 0.175117 6.90212 0.00158358 7.23693 0.000168895C7.8028 -0.00266047 8.36867 -0.00266047 8.93455 0.000168895C9.26464 0.000168895 9.43817 0.176062 9.44242 0.512756C9.44666 0.858409 9.44855 1.20453 9.44242 1.55019C9.4377 1.79587 9.54097 1.94252 9.77251 2.02882C10.1101 2.15425 10.4426 2.29572 10.7713 2.44379C11.0009 2.54706 11.1924 2.5249 11.3702 2.34099C11.6059 2.09861 11.845 1.86095 12.086 1.62375C12.3387 1.37571 12.575 1.37194 12.823 1.61668C13.2201 2.00807 13.6145 2.40245 14.0062 2.79982C14.2537 3.05069 14.2533 3.28553 14.0062 3.53687C13.7591 3.78821 13.52 4.02871 13.2724 4.27015C13.0965 4.44227 13.0786 4.62665 13.1781 4.84828C13.3271 5.17837 13.4662 5.50846 13.5931 5.84704C13.6789 6.07622 13.8223 6.1894 14.0689 6.18562C14.4145 6.17996 14.7602 6.18138 15.1063 6.18562C15.4524 6.18987 15.625 6.36151 15.625 6.71141C15.6269 7.26942 15.6269 7.82728 15.625 8.38498C15.625 8.73205 15.452 8.9037 15.1011 8.9037C14.7635 8.907 14.4254 8.91124 14.0878 8.9037C13.8322 8.89709 13.6808 9.00225 13.5921 9.24511C13.4686 9.58369 13.3248 9.91519 13.1781 10.2443C13.0796 10.466 13.1012 10.6527 13.2762 10.8239C13.517 11.0606 13.7559 11.2994 13.993 11.5402C14.2523 11.8038 14.2561 12.0353 14.0005 12.2947C13.6088 12.6917 13.2144 13.0861 12.8174 13.4778C12.5769 13.7136 12.3378 13.7136 12.0973 13.4778C11.8568 13.242 11.6045 12.9926 11.364 12.7446C11.1853 12.5602 10.9934 12.5441 10.7647 12.6474C10.4365 12.7958 10.1037 12.9343 9.76638 13.0629C9.5471 13.1463 9.43629 13.2868 9.44006 13.5226C9.4443 13.8683 9.44336 14.2144 9.44006 14.5601C9.43723 14.9208 9.26605 15.0882 8.90107 15.0892C8.35123 15.0892 7.80107 15.0892 7.25061 15.0892C6.88892 15.0892 6.72199 14.9189 6.71916 14.552C6.71916 14.2144 6.71303 13.8763 6.71916 13.5387C6.72434 13.293 6.61919 13.1463 6.38906 13.0596C6.04435 12.9303 5.7053 12.7846 5.36814 12.6351C5.15499 12.5408 4.97439 12.5635 4.80934 12.7295C4.56696 12.9756 4.32253 13.2199 4.07606 13.4623C3.82331 13.7103 3.58753 13.7146 3.33902 13.4698C2.93756 13.0762 2.53784 12.6779 2.13984 12.2749C1.91255 12.0438 1.91349 11.8033 2.13984 11.5723C2.38128 11.3247 2.62979 11.0847 2.87217 10.838C3.08013 10.6258 3.09192 10.4957 2.97167 10.225C2.8302 9.90246 2.69109 9.57708 2.56802 9.24652C2.48266 9.01734 2.33931 8.90417 2.09268 8.90794C1.74703 8.9136 1.40138 8.91218 1.05525 8.90794C0.709127 8.90369 0.538894 8.73157 0.536536 8.38215C0.536536 8.10581 0.536536 7.82948 0.536536 7.55598ZM8.55305 14.1955C8.55305 13.9546 8.55305 13.7362 8.55305 13.5179C8.55777 12.8898 8.89776 12.4333 9.49146 12.2206C9.78763 12.1175 10.0779 11.9982 10.361 11.8632C10.974 11.5685 11.5144 11.6453 11.995 12.1301C12.1426 12.2791 12.2666 12.4508 12.3901 12.5984L13.139 11.866C12.964 11.7142 12.7759 11.5723 12.6127 11.4053C12.1954 10.9786 12.1199 10.4282 12.3708 9.88407C12.5151 9.57095 12.6481 9.25171 12.7664 8.92822C12.9744 8.35716 13.4266 8.02424 14.0335 8.01811C14.2594 8.01811 14.4853 8.01811 14.7201 8.01811V7.07498C14.4924 7.07498 14.2816 7.07498 14.0703 7.07498C13.4252 7.07074 12.9664 6.73452 12.7542 6.13186C12.6581 5.84963 12.5455 5.57329 12.417 5.30428C12.0921 4.63749 12.1709 4.12538 12.7 3.59534C12.8367 3.45906 12.972 3.32184 13.0843 3.20866C12.857 2.97288 12.6537 2.75738 12.4071 2.49897C12.2567 2.66826 12.1152 2.84698 11.9539 3.00542C11.5154 3.43501 10.9679 3.51376 10.4143 3.25676C10.1017 3.112 9.78194 2.97996 9.45845 2.86112C8.88692 2.65128 8.55824 2.20094 8.55258 1.59121C8.55022 1.36581 8.55258 1.13993 8.55258 0.911222H7.60993C7.60993 1.14134 7.60993 1.3526 7.60993 1.56386C7.60569 2.20613 7.26852 2.66401 6.66068 2.87668C6.38589 2.96994 6.1168 3.07921 5.85479 3.20395C5.17291 3.53687 4.65938 3.46 4.12463 2.92431C3.98883 2.7885 3.85254 2.65317 3.74739 2.55037L3.06127 3.20819C3.20839 3.34966 3.36307 3.4949 3.51161 3.64533C3.97515 4.11689 4.05437 4.66767 3.76672 5.26466C3.63335 5.54059 3.51605 5.824 3.41541 6.11347C3.19472 6.74819 2.75287 7.07498 2.06958 7.07498H1.4391V8.01811C1.66121 8.01811 1.87152 8.01811 2.08137 8.01811C2.74155 8.02141 3.19708 8.35574 3.41305 8.9749C3.51316 9.2643 3.62983 9.5477 3.76248 9.82371C4.0605 10.4367 3.98505 10.9767 3.50218 11.4581C3.35316 11.6062 3.18387 11.7335 3.04806 11.8495L3.76908 12.563C3.8964 12.4244 4.03362 12.2626 4.18405 12.1141C4.64854 11.6538 5.19413 11.5741 5.78122 11.8542C6.06382 11.9902 6.35363 12.1106 6.64937 12.215C7.27701 12.4338 7.60663 12.8752 7.61041 13.541C7.61041 13.7579 7.61041 13.9744 7.61041 14.197L8.55305 14.1955Z" fill="#50555C"/>
<path d="M12.0558 7.55698C12.0537 8.34326 11.8185 9.11126 11.3798 9.76381C10.9412 10.4164 10.3188 10.9241 9.59147 11.2229C8.86415 11.5216 8.06456 11.5979 7.29387 11.4421C6.52318 11.2862 5.81603 10.9053 5.2619 10.3475C4.70776 9.78964 4.33155 9.07997 4.18085 8.30827C4.03016 7.53656 4.11176 6.7375 4.41532 6.01218C4.71889 5.28686 5.23078 4.66788 5.88623 4.23357C6.54168 3.79926 7.31123 3.56913 8.09751 3.5723C8.61921 3.57347 9.13555 3.67753 9.61699 3.87852C10.0984 4.07951 10.5355 4.37348 10.9032 4.7436C11.2708 5.11373 11.5619 5.55273 11.7597 6.03549C11.9575 6.51825 12.0581 7.03528 12.0558 7.55698V7.55698ZM8.07723 4.45128C7.25617 4.45078 6.46855 4.77647 5.88762 5.35669C5.30669 5.93691 4.98005 6.72413 4.97955 7.54519C4.97905 8.36624 5.30473 9.15387 5.88495 9.73479C6.46517 10.3157 7.2524 10.6424 8.07346 10.6429C9.77767 10.6495 11.1858 9.24186 11.1773 7.53717C11.1688 5.83248 9.7739 4.44704 8.07723 4.45128V4.45128Z" fill="#50555C"/>
<path d="M7.6274 7.82712L8.9256 6.51901C8.98078 6.4629 9.03406 6.40489 9.09301 6.35349C9.2854 6.18656 9.54335 6.18373 9.71122 6.34453C9.88853 6.5143 9.89985 6.78356 9.71405 6.97831C9.4165 7.29095 9.10621 7.59134 8.80111 7.89643C8.52902 8.16852 8.2607 8.44392 7.9839 8.71129C7.75991 8.92774 7.52177 8.92868 7.29778 8.71129C7.01484 8.43873 6.73741 8.16129 6.46548 7.87899C6.26695 7.67292 6.26742 7.40507 6.45039 7.22824C6.62203 7.06178 6.89177 7.06413 7.08463 7.25134C7.26477 7.42723 7.42982 7.6168 7.6274 7.82712Z" fill="#50555C"/>
</g>
<defs>
<clipPath id="clip0_821_409">
<rect width="15.0927" height="15.0927" fill="white" transform="translate(0.535156)"/>
</clipPath>
</defs>
</svg>
