<svg width="16" height="16" viewBox="0 0 16 16" fill="none" xmlns="http://www.w3.org/2000/svg">
<g clip-path="url(#clip0_876_671)">
<path d="M8.04669 1.25781C4.57513 1.25781 1.76392 4.07531 1.76392 7.54688C1.76392 11.0184 4.57513 13.8359 8.04669 13.8359C11.5245 13.8359 14.342 11.0184 14.342 7.54688C14.342 4.07531 11.5245 1.25781 8.04669 1.25781ZM8.05298 12.5781C5.27321 12.5781 3.02173 10.3266 3.02173 7.54688C3.02173 4.76711 5.27321 2.51563 8.05298 2.51563C10.8327 2.51563 13.0842 4.76711 13.0842 7.54688C13.0842 10.3266 10.8327 12.5781 8.05298 12.5781Z" fill="#E5A900"/>
<path d="M8.36743 4.40234H7.42407V8.17578L10.7258 10.1568L11.1975 9.38328L8.36743 7.7041V4.40234Z" fill="#E5A900"/>
</g>
<defs>
<clipPath id="clip0_876_671">
<rect width="15.0938" height="15.0938" fill="white" transform="translate(0.506104)"/>
</clipPath>
</defs>
</svg>
