<svg width="35" height="35" viewBox="0 0 35 35" fill="none" xmlns="http://www.w3.org/2000/svg">
<circle cx="17.5" cy="17.5" r="17.5" fill="#FFC82E"/>
<g clip-path="url(#clip0_790_1685)">
<path d="M7.00011 17.1448C7.00011 17.5686 7.00011 17.9924 7.00011 18.4154C7.00011 19.1379 7.32074 19.6373 8.0074 19.8907C8.4154 20.0404 8.8241 20.1874 9.2266 20.3502C9.31392 20.3952 9.38403 20.4676 9.42613 20.5562C9.84583 21.357 10.4995 21.8048 11.4084 21.8014C12.3173 21.7979 12.9681 21.355 13.4037 20.5651C13.4399 20.5089 13.4881 20.4613 13.5448 20.4257C13.6015 20.3901 13.6654 20.3674 13.7319 20.3591C16.8386 20.3481 19.9451 20.3481 23.0513 20.3591C23.1628 20.3591 23.3217 20.471 23.3782 20.5741C23.8034 21.3556 24.4439 21.8027 25.3384 21.8041C26.2562 21.8041 26.925 21.3646 27.3557 20.5507C27.3894 20.4984 27.4339 20.4538 27.4862 20.4199C27.5386 20.386 27.5975 20.3637 27.6591 20.3543C27.9667 20.3275 28.2784 20.3467 28.5873 20.3426C28.8625 20.3385 29.0001 20.2155 28.9939 19.9175C28.9808 19.219 28.9712 18.5198 28.9939 17.8227C29.018 17.105 28.6774 16.6291 28.0802 16.298C26.9217 15.6606 25.6341 15.292 24.3132 15.2197C24.0871 15.205 23.867 15.1408 23.6685 15.0316C22.2539 14.2362 20.7994 13.5453 19.1866 13.2548C16.0485 12.6882 13.0425 13.033 10.2421 14.6284C9.64011 14.9718 8.98579 14.9368 8.35348 15.0673C8.05143 15.1298 7.74181 15.1607 7.43495 15.1985C7.12808 15.2362 6.99254 15.4045 6.99529 15.706C7.00355 16.1833 7.0008 16.6641 7.00011 17.1448ZM17.3207 19.5912V15.9732C17.366 15.9634 17.412 15.9568 17.4583 15.9532C19.7618 15.9532 22.0681 15.9326 24.3689 15.9718C25.5654 15.9924 26.6883 16.3667 27.7403 16.945C28.0272 17.103 28.257 17.3289 28.2708 17.6593C28.2983 18.2946 28.279 18.9326 28.279 19.5823L28.0603 19.6091C27.7438 19.6462 27.5786 19.6009 27.5098 19.197C27.3626 18.3282 26.8025 17.7362 25.9494 17.4972C25.0632 17.2486 24.265 17.4869 23.7002 18.2094C23.4029 18.5899 23.255 19.0864 23.0121 19.5919L17.3207 19.5912ZM16.5287 15.9512C16.5349 16.1016 16.5425 16.1929 16.5425 16.2836C16.5425 17.3138 16.5384 18.344 16.5459 19.3742C16.5459 19.5906 16.4338 19.6112 16.2638 19.6105C15.4726 19.6064 14.6814 19.6015 13.8901 19.6105C13.6624 19.6105 13.606 19.5232 13.5805 19.3138C13.5156 18.8126 13.2786 18.3494 12.9099 18.0031C12.5413 17.6567 12.0637 17.4486 11.5587 17.4143C11.0536 17.38 10.5522 17.5215 10.1399 17.8147C9.72758 18.108 9.42988 18.5348 9.29747 19.0226C9.24999 19.1929 9.21353 19.366 9.16605 19.5665C8.79658 19.414 8.44086 19.3062 8.12918 19.1228C7.96267 19.0253 7.78516 18.8076 7.76521 18.6283C7.71567 18.1215 7.748 17.6057 7.748 17.0446H8.81102V16.296H7.76658C7.72461 15.9017 7.72461 15.9017 8.06794 15.8516C8.19317 15.8337 8.31701 15.8097 8.44292 15.7973C9.3821 15.7053 10.3006 15.5563 11.1063 15.0007C11.1786 14.9512 11.3712 14.9883 11.4503 15.0542C11.6778 15.2469 11.8907 15.456 12.0875 15.6799C12.1699 15.7743 12.2733 15.8483 12.3894 15.896C12.5055 15.9437 12.6311 15.9637 12.7562 15.9546C13.5241 15.9416 14.2926 15.9505 15.0612 15.9505L16.5287 15.9512ZM23.9004 19.6153C23.9012 19.2278 24.0562 18.8566 24.3312 18.5832C24.6062 18.3098 24.9788 18.1567 25.3669 18.1575C25.7551 18.1584 26.127 18.3131 26.4008 18.5876C26.6747 18.8621 26.8281 19.234 26.8273 19.6215C26.8265 20.0089 26.6715 20.3801 26.3965 20.6535C26.1214 20.9269 25.7489 21.08 25.3607 21.0792C24.9726 21.0784 24.6007 20.9237 24.3268 20.6491C24.053 20.3746 23.8996 20.0027 23.9004 19.6153ZM11.4214 18.1544C11.7098 18.1573 11.9908 18.2453 12.2291 18.4074C12.4674 18.5695 12.6523 18.7983 12.7604 19.0652C12.8686 19.332 12.8951 19.6248 12.8368 19.9067C12.7784 20.1886 12.6378 20.4469 12.4326 20.6491C12.2273 20.8512 11.9667 20.9882 11.6836 21.0428C11.4005 21.0973 11.1075 21.0669 10.8416 20.9555C10.5758 20.844 10.3489 20.6565 10.1897 20.4165C10.0305 20.1765 9.94604 19.8949 9.94698 19.607C9.95025 19.2195 10.1073 18.849 10.3836 18.5767C10.66 18.3045 11.0332 18.1526 11.4214 18.1544ZM12.0923 14.6002C12.1067 14.5762 12.1102 14.5611 12.1184 14.5577C13.4684 13.9917 14.8809 13.7541 16.3375 13.7637C16.4063 13.7637 16.5274 13.9073 16.5342 13.9917C16.5583 14.2871 16.5287 14.5865 16.5487 14.8846C16.5666 15.1435 16.4723 15.217 16.2171 15.2136C15.2538 15.2005 14.2906 15.1696 13.3321 15.2232C12.7693 15.2527 12.3929 15.0556 12.093 14.6002H12.0923ZM17.3083 13.7692C19.0772 13.8551 20.7155 14.3008 22.2422 15.1806H17.3083V13.7692Z" fill="white"/>
<path d="M19.8252 16.3276H18.412V17.0309H19.8252V16.3276Z" fill="white"/>
</g>
<defs>
<clipPath id="clip0_790_1685">
<rect width="22" height="8.8" fill="white" transform="matrix(-1 0 0 1 29 13)"/>
</clipPath>
</defs>
</svg>
