<svg width="35" height="35" viewBox="0 0 35 35" fill="none" xmlns="http://www.w3.org/2000/svg">
<circle cx="17.5" cy="17.5" r="17.5" fill="#FFC82E"/>
<g clip-path="url(#clip0_785_1582)">
<path d="M25.4403 26.2423V10.0275C25.3384 10.0703 25.2539 10.0989 25.1768 10.1399C22.7602 11.4128 20.3427 12.6856 17.9244 13.9581C17.7522 14.0488 17.6839 14.1556 17.6982 14.3462C17.7125 14.5368 17.7025 14.7392 17.6982 14.9361C17.6926 15.1571 17.5646 15.2913 17.3551 15.3087C17.1246 15.3248 16.9729 15.1845 16.9611 14.9584C16.9425 14.5859 16.9195 14.2083 16.9723 13.8438C16.9947 13.6905 17.1805 13.5172 17.3359 13.4346C19.5451 12.2548 21.7625 11.0906 23.9774 9.92194C24.4994 9.64686 25.0196 9.36868 25.5429 9.0967C25.9524 8.88372 26.2072 9.03461 26.2078 9.50094C26.2111 11.488 26.2111 13.475 26.2078 15.462C26.2078 18.9294 26.2116 22.3968 26.2016 25.8641C26.2016 26.1535 26.2638 26.2783 26.5714 26.2504C26.82 26.228 27.0064 26.3646 26.999 26.6297C26.9915 26.8949 26.8057 26.9992 26.554 26.9992H9.65025C9.54663 27.0045 9.44276 27.002 9.33952 26.9918C9.13008 26.9601 8.99523 26.834 8.99709 26.6192C8.99895 26.4043 9.13505 26.282 9.34635 26.251C9.40804 26.2414 9.47072 26.2399 9.53279 26.2466C9.74222 26.2715 9.79753 26.1752 9.79443 25.9778C9.7851 25.3046 9.79443 24.6322 9.79443 23.9591C9.79443 22.334 9.79815 20.709 9.7907 19.0846C9.78619 18.9668 9.80793 18.8493 9.85436 18.7409C9.90078 18.6324 9.97074 18.5356 10.0592 18.4575C11.4823 17.0993 12.9013 15.7369 14.3162 14.3704C14.6518 14.0481 14.7804 14.0475 15.1241 14.3766C16.5327 15.734 17.9426 17.0908 19.3537 18.4469C19.4459 18.528 19.5187 18.6286 19.5669 18.7414C19.6151 18.8542 19.6374 18.9764 19.6322 19.0989C19.6235 21.3449 19.6272 23.5908 19.6272 25.8368V26.223H20.5239V25.8505C20.5239 24.6707 20.5239 23.4909 20.5239 22.3111C20.5239 21.8472 20.6265 21.7479 21.0932 21.7466C22.0668 21.7466 23.0405 21.7466 24.0141 21.7466C24.4491 21.7466 24.5603 21.8572 24.5616 22.3055C24.5616 23.5064 24.5703 24.7073 24.5566 25.907C24.5529 26.1827 24.6355 26.2833 24.9084 26.2522C25.0854 26.2396 25.263 26.2363 25.4403 26.2423ZM18.8528 26.2255V19.2709H10.5681V26.223C10.6701 26.2305 10.7509 26.2398 10.8316 26.241C11.2984 26.2497 11.2984 26.2491 11.2984 25.7784C11.2984 24.0398 11.2984 22.3011 11.2984 20.5625C11.2984 20.0974 11.3997 19.9956 11.8633 19.9949C13.7587 19.9949 15.6538 19.9949 17.5484 19.9949C18.0244 19.9949 18.1282 20.1011 18.1282 20.583C18.1282 22.3423 18.1282 24.1017 18.1282 25.861C18.1282 25.9802 18.1394 26.0995 18.1462 26.2255H18.8528ZM11.1467 18.4593H18.2811L14.7152 15.028L11.1467 18.4593ZM23.8121 22.516H21.3163C21.2989 22.5563 21.2834 22.5781 21.2834 22.5936C21.2796 23.7411 21.2803 24.8911 21.2722 26.0361C21.2722 26.2361 21.3859 26.2435 21.5332 26.2429C22.1957 26.2429 22.8582 26.233 23.5219 26.2466C23.7605 26.2516 23.8202 26.1634 23.8183 25.9399C23.809 24.9582 23.8146 23.9758 23.8146 22.9935L23.8121 22.516ZM17.3582 20.7618C17.2669 20.7537 17.206 20.7438 17.1451 20.7438C15.5398 20.7438 13.9346 20.7519 12.33 20.737C11.9453 20.7332 12.0609 20.981 12.0472 21.1716C12.0323 21.3852 12.0161 21.5653 12.3468 21.5616C13.9309 21.5454 15.5162 21.5548 17.1003 21.5535C17.1805 21.5535 17.2607 21.5405 17.3582 21.5318V20.7618ZM17.3582 26.2423V25.4599H12.0454V25.8138C12.0454 26.2392 12.0454 26.2392 12.4568 26.2398H17.3564L17.3582 26.2423ZM12.0472 23.8976C12.0472 24.0392 12.0472 24.141 12.0472 24.2428C12.0472 24.6775 12.0472 24.6775 12.4785 24.6775C13.9887 24.6775 15.4986 24.6775 17.0083 24.6775C17.1264 24.6775 17.2451 24.6651 17.362 24.6582V23.8976H12.0472ZM12.0913 23.0904H17.3526V22.3123H12.7066C11.9695 22.3123 11.9695 22.3123 12.0665 23.0494C12.0659 23.0581 12.0739 23.0661 12.0895 23.0916L12.0913 23.0904Z" fill="white"/>
<path d="M23.4053 18.0603C24.5457 17.9895 24.7607 18.3255 24.7036 19.3556C24.6936 19.5307 24.7079 19.7077 24.6986 19.8828C24.675 20.3231 24.3879 20.6106 23.9429 20.6248C23.6017 20.6366 23.2593 20.6348 22.9187 20.6248C22.4427 20.613 22.1512 20.3262 22.1326 19.8449C22.1189 19.5146 22.1195 19.183 22.1326 18.8514C22.1518 18.3435 22.4539 18.0647 22.9716 18.0578C23.1176 18.0585 23.2624 18.0603 23.4053 18.0603ZM22.9212 18.8123V19.853C23.9628 19.9486 24.015 19.9052 23.9547 19.0321C23.9547 19.0216 23.9591 19.0073 23.9547 19.0017C23.8957 18.9396 23.8385 18.8278 23.7739 18.8228C23.4998 18.8005 23.2232 18.8123 22.9231 18.8123H22.9212Z" fill="white"/>
<path d="M19.742 16.9426C19.5668 16.9426 19.3903 16.9488 19.215 16.9426C18.7688 16.9227 18.4755 16.6427 18.4587 16.2024C18.4451 15.841 18.4444 15.4784 18.4587 15.1176C18.4761 14.6917 18.7657 14.406 19.1927 14.3899C19.5544 14.3762 19.9167 14.3769 20.2784 14.3899C20.7034 14.4054 20.9993 14.6867 21.0241 15.1127C21.0457 15.4849 21.0457 15.8581 21.0241 16.2304C20.9986 16.6539 20.6991 16.9252 20.2715 16.9451C20.0944 16.9494 19.9179 16.942 19.742 16.9426ZM19.2275 15.1512V16.1757H20.2405V15.1512H19.2275Z" fill="white"/>
<path d="M24.7035 15.6928C24.7035 16.8049 24.5649 16.9446 23.4606 16.9446C23.2741 16.9446 23.0877 16.9496 22.9013 16.9446C22.4526 16.926 22.1624 16.6584 22.1375 16.2107C22.1182 15.8495 22.1182 15.4876 22.1375 15.1265C22.1617 14.6782 22.4482 14.405 22.8988 14.39C23.2294 14.3795 23.5606 14.3814 23.8931 14.39C24.4083 14.4006 24.6929 14.6875 24.7048 15.2022C24.7066 15.3624 24.7035 15.5276 24.7035 15.6928ZM22.9131 15.1513V16.1697H23.9372V15.1513H22.9131Z" fill="white"/>
<path d="M24.6988 11.9382C24.6459 12.0003 24.5695 12.1443 24.4502 12.2095C23.5404 12.7026 22.6225 13.1801 21.7064 13.6619C21.4883 13.7762 21.2813 13.7793 21.1372 13.5502C21.0129 13.3564 21.108 13.1348 21.3665 12.9963C22.2705 12.5144 23.1762 12.0359 24.0835 11.5607C24.3961 11.3973 24.6944 11.5451 24.6988 11.9382Z" fill="white"/>
</g>
<defs>
<clipPath id="clip0_785_1582">
<rect width="18" height="18" fill="white" transform="translate(9 9)"/>
</clipPath>
</defs>
</svg>
